<?xml version="1.0" encoding="UTF-8"?><svg id="a" xmlns="http://www.w3.org/2000/svg" viewBox="0 0 118.72 24.93"><circle cx="3.45" cy="19.76" r="3.18" style="fill:#c6c2bc; stroke-width:0px;"/><path d="M32.23,12.6c3.24-2.2,5.06-5.75,5.06-9.77,0-.23.07-.58.06-.81h-5.31c.02.23-.05.58-.05.82,0,3.91-3.4,7.07-7.6,7.07s-7.6-3.17-7.6-7.07c0-.23-.11-.59-.09-.82h-5.23c-.01.23.05.71.05.94,0,4.02,1.87,7.43,5.11,9.62-4.14,3.09-5.04,6.59-5.26,10.32h5.46c.03-3.44,2.51-7.68,7.6-7.68,4.69,0,7.52,4.02,7.52,7.68h5.31c.04-4.85-1.93-8.17-5.04-10.3Z" style="fill:#ad2317; stroke-width:0px;"/><polygon points="39.01 1.99 39.01 7.47 49.23 7.47 49.23 22.87 54.71 22.87 54.71 7.47 64.85 7.47 64.85 1.99 39.01 1.99" style="fill:#ad2317; stroke-width:0px;"/><path d="M118.45,17.54v5.26h-14.14s-9.26-.89-9.26-10.44,9.18-10.29,9.18-10.29h14.14v5.4h-13.55s-4.59,1.04-4.59,4.88,3.33,5.26,4,5.26c.67,0,14.21-.07,14.21-.07Z" style="fill:#ad2317; stroke-width:0px;"/><path d="M90.32,22.79h-17.92s-5.48-.74-5.48-6.37c0-1.26.15-2.07,1.04-3.92-1.26-2.15-1.04-4.67-1.04-4.67,0,0,1.04-5.62,5.48-5.62h17.92v5.11h-17.1s-1.11.07-1.11,1.26,1.11,1.11,1.11,1.11h13.33v5.48h-13.55s-1.04.22-1.04,1.33c0,1,1.18,1.11,1.18,1.11h17.1l.07,5.18Z" style="fill:#ad2317; stroke-width:0px;"/></svg>