<?xml version="1.0" encoding="UTF-8"?>
<svg id="a" xmlns="http://www.w3.org/2000/svg" viewBox="0 0 85.6 24.92"><path d="M31.09,2.53c-.06-.09-.13-.17-.21-.24-.08-.07-.18-.12-.28-.16-.11-.04-.22-.06-.33-.06-.21,0-.39.04-.54.12s-.27.19-.36.33c-.09.14-.16.29-.2.47-.04.18-.06.36-.06.54s.02.35.06.52c.04.17.11.32.2.46.09.14.21.24.36.33s.33.12.54.12c.29,0,.51-.09.67-.26.16-.18.26-.41.3-.69h.91c-.02.27-.09.51-.19.72-.1.21-.23.4-.39.55-.16.15-.35.27-.57.35-.22.08-.46.12-.72.12-.33,0-.62-.06-.88-.17-.26-.11-.48-.27-.66-.47-.18-.2-.32-.43-.41-.7-.1-.27-.14-.56-.14-.87s.05-.61.14-.89c.1-.27.23-.51.41-.71.18-.2.4-.36.66-.48.26-.12.55-.17.88-.17.23,0,.46.03.67.1.21.07.4.17.56.3.17.13.3.29.41.48.11.19.18.41.2.66h-.91c-.02-.11-.05-.21-.11-.3Z" style="fill:#00416b; stroke-width:0px;"/><path d="M32.63,3.44c.08-.2.18-.37.32-.51.14-.14.31-.25.5-.33.2-.08.41-.12.66-.12s.46.04.66.12.37.19.5.33c.14.14.25.31.32.51.08.2.11.43.11.67s-.04.47-.11.67c-.08.2-.18.37-.32.51-.14.14-.31.25-.5.33-.2.08-.42.11-.66.11s-.46-.04-.66-.11c-.2-.08-.36-.18-.5-.33-.14-.14-.25-.31-.32-.51-.08-.2-.11-.42-.11-.67s.04-.47.11-.67ZM33.4,4.47c.02.12.07.22.12.32.06.09.13.17.23.22.1.06.22.08.36.08s.26-.03.36-.08c.1-.06.18-.13.23-.22.06-.09.1-.2.12-.32.02-.12.04-.24.04-.36s-.01-.24-.04-.36c-.02-.12-.06-.23-.12-.32-.06-.09-.14-.17-.23-.22-.1-.06-.22-.09-.36-.09s-.26.03-.36.09c-.1.06-.17.13-.23.22-.06.09-.1.2-.12.32-.02.12-.04.24-.04.36s.01.24.04.36Z" style="fill:#00416b; stroke-width:0px;"/><path d="M36.99,2.56v.43h.02c.11-.18.25-.31.42-.39.17-.08.35-.12.53-.12.23,0,.41.03.56.09.15.06.26.15.34.26.08.11.14.24.18.4.03.16.05.33.05.52v1.9h-.85v-1.74c0-.25-.04-.45-.12-.57s-.22-.19-.42-.19c-.23,0-.4.07-.5.21-.1.14-.16.36-.16.68v1.62h-.85v-3.09h.81Z" style="fill:#00416b; stroke-width:0px;"/><path d="M40.36,4.89c.04.07.09.12.15.16.06.04.13.07.21.09.08.02.16.03.24.03.06,0,.12,0,.19-.02.07-.01.13-.04.18-.07.05-.03.1-.07.13-.12.04-.05.05-.11.05-.19,0-.13-.08-.22-.25-.29-.17-.06-.41-.13-.71-.19-.12-.03-.24-.06-.36-.1-.12-.04-.22-.09-.31-.15-.09-.06-.16-.14-.22-.23-.06-.09-.08-.21-.08-.34,0-.2.04-.36.12-.49.08-.13.18-.23.31-.3.13-.07.27-.13.43-.16.16-.03.32-.04.49-.04s.33.02.49.05c.16.03.3.09.42.16.12.08.23.18.31.3s.13.28.15.47h-.81c-.01-.16-.07-.27-.19-.33-.11-.06-.24-.09-.39-.09-.05,0-.1,0-.16,0-.06,0-.11.02-.15.04-.05.02-.08.05-.12.09-.03.04-.05.09-.05.15,0,.08.03.14.08.19.06.05.13.09.22.12.09.03.19.06.31.08.12.02.23.05.35.08.12.03.24.06.36.1.12.04.22.09.31.16.09.07.16.15.22.25.06.1.08.22.08.36,0,.2-.04.37-.12.51-.08.14-.19.25-.32.33-.13.08-.28.14-.45.18s-.34.05-.52.05-.35-.02-.53-.05c-.17-.04-.32-.1-.46-.18-.13-.08-.24-.19-.33-.33-.09-.14-.13-.31-.14-.52h.81c0,.09.02.17.06.24Z" style="fill:#00416b; stroke-width:0px;"/><path d="M42.79,3.44c.08-.2.18-.37.32-.51.14-.14.31-.25.5-.33.2-.08.41-.12.66-.12s.46.04.66.12.37.19.5.33c.14.14.25.31.32.51.08.2.11.43.11.67s-.04.47-.11.67c-.08.2-.18.37-.32.51-.14.14-.31.25-.5.33-.2.08-.42.11-.66.11s-.46-.04-.66-.11c-.2-.08-.36-.18-.5-.33-.14-.14-.25-.31-.32-.51-.08-.2-.11-.42-.11-.67s.04-.47.11-.67ZM43.57,4.47c.02.12.07.22.12.32.06.09.13.17.23.22.1.06.22.08.36.08s.26-.03.36-.08c.1-.06.18-.13.23-.22.06-.09.1-.2.12-.32.02-.12.04-.24.04-.36s-.01-.24-.04-.36c-.02-.12-.06-.23-.12-.32-.06-.09-.14-.17-.23-.22-.1-.06-.22-.09-.36-.09s-.26.03-.36.09c-.1.06-.17.13-.23.22-.06.09-.1.2-.12.32-.02.12-.04.24-.04.36s.01.24.04.36Z" style="fill:#00416b; stroke-width:0px;"/><path d="M47.16,2.56v.57h.01c.04-.1.09-.18.16-.27.07-.08.15-.15.23-.21.09-.06.18-.1.28-.13.1-.03.2-.05.31-.05.06,0,.12.01.19.03v.79s-.09-.02-.14-.02c-.06,0-.11,0-.16,0-.16,0-.29.03-.39.08-.11.05-.19.12-.26.21-.07.09-.11.19-.14.31s-.04.25-.04.39v1.39h-.85v-3.09h.81Z" style="fill:#00416b; stroke-width:0px;"/><path d="M49.97,3.12c-.14,0-.25.03-.34.09-.09.06-.17.14-.22.24-.06.1-.1.21-.12.32-.02.12-.04.23-.04.35s.01.23.04.34c.02.12.06.22.12.31.05.09.13.17.22.23.09.06.2.09.33.09.2,0,.36-.06.47-.17.11-.11.18-.27.21-.46h.82c-.06.41-.22.72-.48.94-.26.22-.6.32-1.01.32-.23,0-.44-.04-.64-.12-.19-.08-.36-.19-.49-.33-.14-.14-.24-.31-.32-.5-.08-.19-.11-.41-.11-.64s.03-.46.1-.67c.07-.2.17-.38.31-.53s.3-.27.5-.35c.2-.08.42-.13.67-.13.18,0,.36.02.53.07.17.05.32.12.45.22.13.1.24.22.33.36.08.15.13.32.14.52h-.83c-.06-.35-.26-.53-.63-.53Z" style="fill:#00416b; stroke-width:0px;"/><path d="M51.87,2.09v-.7h.85v.7h-.85ZM52.71,2.56v3.09h-.85v-3.09h.85Z" style="fill:#00416b; stroke-width:0px;"/><path d="M56.91,5.26c-.1.17-.23.29-.39.36-.16.07-.34.11-.55.11-.23,0-.43-.04-.61-.13-.18-.09-.32-.21-.43-.36-.11-.15-.2-.33-.26-.53-.06-.2-.09-.41-.09-.62s.03-.41.09-.6c.06-.19.14-.36.26-.51.11-.15.26-.27.43-.36.17-.09.37-.13.6-.13.18,0,.36.04.52.12s.3.19.39.34h.01v-1.55h.85v4.27h-.81v-.39h-.01ZM56.87,3.73c-.02-.12-.07-.22-.12-.31-.06-.09-.13-.16-.22-.22-.09-.06-.21-.08-.35-.08s-.26.03-.35.08c-.1.06-.17.13-.23.22-.06.09-.1.2-.13.31-.03.12-.04.24-.04.37,0,.12.01.24.04.36.03.12.07.23.13.32.06.09.14.17.23.23s.21.09.34.09c.14,0,.26-.03.35-.08.09-.06.17-.13.22-.22.06-.09.1-.2.12-.32.02-.12.04-.24.04-.37s-.01-.25-.04-.37Z" style="fill:#00416b; stroke-width:0px;"/><path d="M59.22,1.39v.91c0,.13-.02.25-.06.37-.04.12-.1.22-.18.3-.08.09-.17.16-.27.22-.11.06-.22.09-.34.11v-.39c.15-.05.25-.13.31-.23.06-.1.08-.23.08-.37h-.39v-.92h.85Z" style="fill:#00416b; stroke-width:0px;"/><path d="M63.15,1.39v.79h-2.25v.91h2.07v.73h-2.07v1.05h2.3v.79h-3.24V1.39h3.19Z" style="fill:#00416b; stroke-width:0px;"/><path d="M65.85,5.26c-.1.17-.23.29-.39.36-.16.07-.34.11-.55.11-.23,0-.43-.04-.61-.13-.18-.09-.32-.21-.43-.36-.11-.15-.2-.33-.26-.53-.06-.2-.09-.41-.09-.62s.03-.41.09-.6c.06-.19.14-.36.26-.51.11-.15.26-.27.43-.36.17-.09.37-.13.6-.13.18,0,.36.04.52.12.17.08.3.19.39.34h.01v-1.55h.85v4.27h-.81v-.39h-.01ZM65.82,3.73c-.02-.12-.07-.22-.12-.31-.06-.09-.13-.16-.22-.22-.09-.06-.21-.08-.35-.08s-.26.03-.35.08c-.1.06-.17.13-.23.22-.06.09-.1.2-.13.31-.03.12-.04.24-.04.37,0,.12.01.24.04.36.03.12.07.23.13.32.06.09.14.17.23.23.09.06.21.09.34.09.14,0,.26-.03.35-.08.09-.06.17-.13.22-.22.06-.09.1-.2.12-.32.02-.12.04-.24.04-.37s-.01-.25-.04-.37Z" style="fill:#00416b; stroke-width:0px;"/><path d="M69.32,5.65v-.43h-.02c-.11.18-.25.31-.42.39-.17.08-.35.12-.53.12-.23,0-.41-.03-.56-.09-.15-.06-.26-.14-.34-.25-.08-.11-.14-.24-.18-.4-.03-.16-.05-.33-.05-.52v-1.9h.85v1.74c0,.26.04.45.12.57.08.13.22.19.42.19.23,0,.4-.07.5-.21.1-.14.16-.36.16-.68v-1.62h.85v3.09h-.81Z" style="fill:#00416b; stroke-width:0px;"/><path d="M72.17,3.12c-.14,0-.25.03-.34.09-.09.06-.17.14-.22.24-.06.1-.1.21-.12.32-.02.12-.04.23-.04.35s.01.23.04.34c.02.12.06.22.12.31.05.09.13.17.22.23.09.06.2.09.33.09.2,0,.36-.06.47-.17.11-.11.18-.27.21-.46h.82c-.06.41-.21.72-.48.94-.26.22-.6.32-1.01.32-.23,0-.44-.04-.64-.12-.19-.08-.36-.19-.49-.33-.14-.14-.24-.31-.32-.5-.08-.19-.11-.41-.11-.64s.03-.46.1-.67c.07-.2.17-.38.31-.53s.3-.27.5-.35c.2-.08.42-.13.67-.13.18,0,.36.02.53.07.17.05.32.12.45.22.13.1.24.22.33.36s.13.32.14.52h-.83c-.06-.35-.26-.53-.63-.53Z" style="fill:#00416b; stroke-width:0px;"/><path d="M74.01,3.51c.01-.2.06-.36.15-.5.09-.13.2-.24.33-.32.14-.08.29-.14.46-.17.17-.03.34-.05.51-.05.16,0,.31.01.47.03.16.02.3.06.44.13.13.06.24.15.32.27.08.11.13.26.13.45v1.61c0,.14,0,.27.02.4.02.13.04.22.08.29h-.86s-.03-.1-.04-.15c-.01-.05-.02-.1-.02-.15-.14.14-.29.24-.48.29-.18.06-.37.08-.56.08-.15,0-.28-.02-.41-.05-.13-.04-.24-.09-.33-.17-.1-.08-.17-.17-.22-.29-.05-.12-.08-.25-.08-.41,0-.18.03-.32.09-.43.06-.11.14-.2.24-.27.1-.07.21-.12.33-.15.13-.03.25-.06.38-.08.13-.02.25-.04.38-.05.12-.01.23-.03.33-.05.1-.02.17-.06.23-.1.06-.05.08-.11.08-.2,0-.09-.01-.16-.04-.22-.03-.05-.07-.1-.12-.13-.05-.03-.11-.05-.17-.06s-.14-.02-.21-.02c-.17,0-.3.04-.39.11-.1.07-.15.19-.17.36h-.85ZM75.97,4.14s-.08.06-.13.07c-.05.02-.11.03-.17.04-.06.01-.13.02-.19.03-.07,0-.14.02-.2.03-.06.01-.13.03-.19.05-.06.02-.12.05-.16.08-.05.03-.08.08-.11.13-.03.05-.04.12-.04.2s.01.14.04.19c.03.05.07.09.11.12.05.03.1.05.17.06.06.01.13.02.2.02.17,0,.3-.03.39-.08.09-.06.16-.12.2-.2.04-.08.07-.16.08-.24,0-.08.01-.14.01-.19v-.32Z" style="fill:#00416b; stroke-width:0px;"/><path d="M78.87,3.12c-.14,0-.25.03-.34.09-.09.06-.17.14-.22.24-.06.1-.1.21-.12.32-.02.12-.04.23-.04.35s.01.23.04.34c.02.12.06.22.12.31.05.09.13.17.22.23.09.06.2.09.33.09.2,0,.36-.06.47-.17.11-.11.18-.27.21-.46h.82c-.06.41-.21.72-.48.94-.26.22-.6.32-1.01.32-.23,0-.44-.04-.64-.12-.19-.08-.36-.19-.49-.33-.14-.14-.24-.31-.32-.5-.08-.19-.11-.41-.11-.64s.03-.46.1-.67c.07-.2.17-.38.31-.53s.3-.27.5-.35c.2-.08.42-.13.67-.13.18,0,.36.02.53.07.17.05.32.12.45.22.13.1.24.22.33.36.08.15.13.32.14.52h-.83c-.06-.35-.26-.53-.63-.53Z" style="fill:#00416b; stroke-width:0px;"/><path d="M80.77,2.09v-.7h.85v.7h-.85ZM81.62,2.56v3.09h-.85v-3.09h.85Z" style="fill:#00416b; stroke-width:0px;"/><path d="M82.23,3.44c.08-.2.18-.37.32-.51.14-.14.31-.25.5-.33.2-.08.41-.12.66-.12s.46.04.66.12.37.19.51.33c.14.14.25.31.32.51.08.2.11.43.11.67s-.04.47-.11.67c-.08.2-.18.37-.32.51-.14.14-.31.25-.51.33-.2.08-.42.11-.66.11s-.46-.04-.66-.11c-.2-.08-.36-.18-.5-.33-.14-.14-.25-.31-.32-.51-.08-.2-.11-.42-.11-.67s.04-.47.11-.67ZM83,4.47c.02.12.06.22.12.32.06.09.13.17.23.22.1.06.21.08.36.08s.26-.03.36-.08c.1-.06.18-.13.23-.22.06-.09.1-.2.12-.32.02-.12.04-.24.04-.36s-.01-.24-.04-.36c-.02-.12-.07-.23-.12-.32-.06-.09-.14-.17-.23-.22-.1-.06-.22-.09-.36-.09s-.26.03-.36.09c-.1.06-.17.13-.23.22-.06.09-.1.2-.12.32-.02.12-.04.24-.04.36s.01.24.04.36ZM83.89.96l-.63,1.06h.59l.97-1.06h-.93Z" style="fill:#00416b; stroke-width:0px;"/><path d="M30.46,11.23c-.1.17-.23.29-.39.36-.16.07-.34.11-.55.11-.23,0-.43-.04-.61-.13-.18-.09-.32-.21-.43-.36-.11-.15-.2-.33-.26-.53-.06-.2-.09-.41-.09-.62s.03-.41.09-.6c.06-.19.14-.36.26-.51.11-.15.26-.27.43-.36.17-.09.37-.13.6-.13.18,0,.36.04.52.12.17.08.3.19.39.34h.01v-1.55h.85v4.27h-.81v-.39h-.01ZM30.42,9.71c-.02-.12-.07-.22-.12-.31-.06-.09-.13-.16-.22-.22-.09-.06-.21-.08-.35-.08s-.26.03-.35.08c-.1.06-.17.13-.23.22-.06.09-.1.2-.13.31-.03.12-.04.24-.04.37,0,.12.01.24.04.36.03.12.07.23.13.32.06.09.14.17.23.23.09.06.21.09.34.09.14,0,.26-.03.35-.08.09-.06.17-.13.22-.22.06-.09.1-.2.12-.32.02-.12.04-.24.04-.37s-.01-.25-.04-.37Z" style="fill:#00416b; stroke-width:0px;"/><path d="M32.74,10.89c.13.12.31.19.55.19.17,0,.32-.04.44-.13.12-.09.2-.18.23-.27h.75c-.12.37-.3.64-.55.79-.25.16-.55.24-.9.24-.24,0-.46-.04-.66-.12-.2-.08-.36-.19-.5-.33-.14-.14-.24-.31-.31-.51-.07-.2-.11-.42-.11-.66s.04-.45.11-.65c.08-.2.18-.37.32-.52.14-.15.31-.26.5-.34.19-.08.41-.13.64-.13.26,0,.49.05.69.15.2.1.36.24.48.41.13.17.22.37.27.59.06.22.08.45.06.69h-2.23c.01.27.08.47.21.6ZM33.7,9.26c-.1-.11-.26-.17-.46-.17-.14,0-.25.02-.34.07-.09.05-.16.1-.21.17-.05.07-.09.14-.11.22-.02.08-.03.14-.04.2h1.38c-.04-.22-.11-.38-.21-.49Z" style="fill:#00416b; stroke-width:0px;"/><path d="M38.7,7.36c.2,0,.39.02.56.05.17.04.31.09.43.18.12.08.21.19.28.33.07.14.1.3.1.5,0,.22-.05.39-.15.54-.1.14-.24.26-.43.35.26.08.46.21.59.4.13.19.19.42.19.68,0,.22-.04.4-.13.56-.08.16-.2.29-.34.39-.14.1-.3.17-.48.22-.18.05-.37.07-.56.07h-2.07v-4.27h2.01ZM38.58,9.09c.17,0,.31-.04.41-.12.11-.08.16-.21.16-.39,0-.1-.02-.18-.05-.25-.04-.06-.08-.11-.14-.15-.06-.04-.13-.06-.21-.07-.08-.01-.16-.02-.24-.02h-.88v1h.95ZM38.64,10.9c.09,0,.18,0,.26-.03.08-.02.16-.05.22-.09.06-.04.11-.1.15-.17.04-.07.06-.16.06-.27,0-.22-.06-.38-.19-.47-.12-.09-.29-.14-.49-.14h-1.02v1.17h1Z" style="fill:#00416b; stroke-width:0px;"/><path d="M40.7,9.49c.01-.2.06-.36.15-.5.09-.13.2-.24.33-.32.14-.08.29-.14.46-.17.17-.03.34-.05.51-.05.16,0,.31.01.47.03.16.02.3.06.44.13.13.06.24.15.32.27.08.11.13.26.13.45v1.61c0,.14,0,.27.02.4.02.13.04.22.08.29h-.86s-.03-.1-.04-.15c0-.05-.02-.1-.02-.15-.14.14-.29.24-.48.29-.18.06-.37.08-.56.08-.15,0-.28-.02-.41-.05-.13-.04-.24-.09-.33-.17-.1-.08-.17-.17-.22-.29-.05-.12-.08-.25-.08-.41,0-.18.03-.32.09-.43.06-.11.14-.2.24-.27.1-.07.21-.12.33-.15.13-.03.25-.06.38-.08.13-.02.25-.04.38-.05.12-.01.23-.03.33-.05.1-.02.17-.06.23-.1.06-.05.08-.11.08-.2,0-.09-.02-.16-.05-.22-.03-.05-.07-.1-.12-.13-.05-.03-.11-.05-.17-.06-.07,0-.14-.02-.21-.02-.17,0-.3.04-.39.11-.1.07-.15.19-.17.36h-.85ZM42.66,10.12s-.08.06-.13.07c-.05.02-.11.03-.17.04-.06.01-.13.02-.19.03-.07,0-.14.02-.2.03-.06.01-.13.03-.19.05-.06.02-.12.05-.16.08-.05.03-.08.08-.11.13-.03.05-.04.12-.04.2s.01.14.04.19c.03.05.07.09.11.12.05.03.1.05.17.06.06.01.13.02.2.02.17,0,.3-.03.39-.08.09-.06.16-.12.2-.2.04-.08.07-.16.08-.24,0-.08.02-.14.02-.19v-.32Z" style="fill:#00416b; stroke-width:0px;"/><path d="M44.89,8.54v.57h.01c.04-.1.09-.18.16-.27.07-.08.15-.15.23-.21s.18-.1.28-.13c.1-.03.2-.05.31-.05.06,0,.12.01.19.03v.79s-.09-.02-.14-.02c-.06,0-.11,0-.16,0-.16,0-.29.03-.39.08-.11.05-.19.12-.26.21-.07.09-.11.19-.14.31s-.04.25-.04.39v1.39h-.85v-3.09h.81Z" style="fill:#00416b; stroke-width:0px;"/><path d="M47.7,9.1c-.14,0-.25.03-.34.09-.09.06-.17.14-.22.24-.06.1-.1.21-.12.32-.02.12-.04.23-.04.35s.01.23.04.34c.02.12.06.22.12.31.05.09.13.17.22.23.09.06.2.09.33.09.2,0,.36-.06.47-.17.11-.11.18-.27.21-.46h.82c-.06.41-.22.72-.48.94s-.6.32-1.01.32c-.23,0-.44-.04-.64-.12-.19-.08-.36-.19-.49-.33-.14-.14-.24-.31-.32-.5-.08-.19-.11-.41-.11-.64s.03-.46.1-.67c.07-.2.17-.38.31-.53s.3-.27.5-.35c.2-.08.42-.13.67-.13.18,0,.36.02.53.07.17.05.32.12.45.22.13.1.24.22.33.36.08.15.13.32.14.52h-.83c-.06-.35-.26-.53-.63-.53Z" style="fill:#00416b; stroke-width:0px;"/><path d="M50.48,10.89c.13.12.31.19.55.19.17,0,.32-.04.44-.13.12-.09.2-.18.23-.27h.75c-.12.37-.3.64-.55.79-.25.16-.55.24-.9.24-.24,0-.46-.04-.66-.12-.2-.08-.36-.19-.5-.33-.14-.14-.24-.31-.31-.51-.07-.2-.11-.42-.11-.66s.04-.45.11-.65c.08-.2.18-.37.32-.52.14-.15.31-.26.5-.34.19-.08.41-.13.64-.13.26,0,.49.05.69.15.2.1.36.24.48.41.13.17.22.37.27.59.06.22.08.45.06.69h-2.23c.01.27.08.47.21.6ZM51.44,9.26c-.1-.11-.26-.17-.46-.17-.14,0-.25.02-.34.07-.09.05-.16.1-.21.17-.05.07-.09.14-.11.22-.02.08-.03.14-.04.2h1.38c-.04-.22-.11-.38-.21-.49Z" style="fill:#00416b; stroke-width:0px;"/><path d="M53.8,7.36v4.27h-.85v-4.27h.85Z" style="fill:#00416b; stroke-width:0px;"/><path d="M54.41,9.42c.08-.2.18-.37.32-.51.14-.14.31-.25.5-.33.2-.08.41-.12.66-.12s.46.04.66.12.37.19.5.33c.14.14.25.31.32.51.08.2.11.43.11.67s-.04.47-.11.67c-.08.2-.18.37-.32.51-.14.14-.31.25-.5.33-.2.08-.42.11-.66.11s-.46-.04-.66-.11c-.2-.08-.36-.18-.5-.33-.14-.14-.25-.31-.32-.51-.08-.2-.11-.42-.11-.67s.04-.47.11-.67ZM55.18,10.45c.02.12.07.22.12.32.06.09.13.17.23.22.1.06.22.08.36.08s.26-.03.36-.08c.1-.06.18-.13.23-.22.06-.09.1-.2.12-.32.02-.12.04-.24.04-.36s-.01-.24-.04-.36c-.02-.12-.06-.23-.12-.32-.06-.09-.14-.17-.23-.22-.1-.06-.22-.09-.36-.09s-.26.03-.36.09c-.1.06-.17.13-.23.22-.06.09-.1.2-.12.32-.02.12-.04.24-.04.36s.01.24.04.36Z" style="fill:#00416b; stroke-width:0px;"/><path d="M58.77,8.54v.43h.02c.11-.18.25-.31.42-.39.17-.08.35-.12.53-.12.23,0,.41.03.56.09.15.06.26.15.34.26.08.11.14.24.18.4.03.16.05.33.05.52v1.9h-.85v-1.74c0-.25-.04-.45-.12-.57-.08-.13-.22-.19-.42-.19-.23,0-.4.07-.5.21-.1.14-.16.36-.16.68v1.62h-.85v-3.09h.81Z" style="fill:#00416b; stroke-width:0px;"/><path d="M61.4,9.49c.01-.2.06-.36.15-.5.09-.13.2-.24.33-.32.14-.08.29-.14.46-.17.17-.03.34-.05.51-.05.16,0,.31.01.47.03.16.02.3.06.44.13.13.06.24.15.32.27.08.11.13.26.13.45v1.61c0,.14,0,.27.02.4.02.13.04.22.08.29h-.86s-.03-.1-.04-.15c0-.05-.02-.1-.02-.15-.14.14-.29.24-.48.29-.18.06-.37.08-.56.08-.15,0-.28-.02-.41-.05-.13-.04-.24-.09-.33-.17-.1-.08-.17-.17-.22-.29s-.08-.25-.08-.41c0-.18.03-.32.09-.43.06-.11.14-.2.24-.27.1-.07.21-.12.33-.15.13-.03.25-.06.38-.08.13-.02.25-.04.38-.05.12-.01.23-.03.33-.05.1-.02.17-.06.23-.1.06-.05.08-.11.08-.2,0-.09-.02-.16-.05-.22-.03-.05-.07-.1-.12-.13-.05-.03-.11-.05-.17-.06-.07,0-.14-.02-.21-.02-.17,0-.3.04-.39.11-.1.07-.15.19-.17.36h-.85ZM63.36,10.12s-.08.06-.13.07c-.05.02-.11.03-.17.04-.06.01-.13.02-.19.03-.07,0-.14.02-.2.03-.06.01-.13.03-.19.05s-.12.05-.16.08c-.05.03-.08.08-.11.13-.03.05-.04.12-.04.2s.01.14.04.19c.03.05.07.09.11.12.05.03.1.05.17.06.06.01.13.02.2.02.17,0,.3-.03.39-.08.09-.06.16-.12.2-.2.04-.08.07-.16.08-.24,0-.08.02-.14.02-.19v-.32Z" style="fill:#00416b; stroke-width:0px;"/><path d="M31.39,17.63l-.05-.71h-.01c-.07.14-.15.26-.24.36-.1.1-.2.18-.32.25-.12.06-.24.11-.37.14-.13.03-.27.04-.41.04-.31,0-.57-.06-.8-.17-.23-.11-.42-.26-.58-.44-.15-.19-.27-.4-.34-.64-.08-.24-.11-.5-.11-.77s.04-.53.11-.77c.08-.24.19-.46.34-.65.15-.19.34-.34.58-.45.23-.11.5-.17.8-.17.2,0,.4.03.58.08.18.05.34.14.49.25.14.11.26.24.36.4.1.16.16.35.2.56h-.37c-.01-.11-.05-.23-.11-.34-.06-.11-.15-.22-.26-.31-.11-.09-.24-.17-.38-.23-.15-.06-.32-.09-.5-.09-.26,0-.48.05-.67.15-.19.1-.34.23-.46.39-.12.16-.21.34-.26.55-.06.2-.08.41-.08.63s.03.42.08.62c.06.21.14.39.26.55.12.16.27.29.46.39.19.1.41.15.67.15.21,0,.41-.04.57-.11.17-.07.31-.17.43-.3.12-.13.2-.28.26-.45.06-.17.09-.37.08-.57h-1.33v-.32h1.65v1.98h-.27Z" style="fill:#00416b; stroke-width:0px;"/><path d="M32.56,16.7c.03.13.09.25.17.36.08.11.17.19.29.26.12.07.26.1.42.1.25,0,.45-.07.59-.2.14-.13.24-.31.29-.52h.34c-.07.32-.21.57-.4.74-.19.17-.47.26-.83.26-.22,0-.41-.04-.58-.12-.16-.08-.29-.19-.39-.32-.1-.14-.18-.29-.23-.47-.05-.18-.07-.37-.07-.57,0-.19.02-.37.07-.55.05-.18.12-.34.23-.48.1-.14.23-.25.39-.34.16-.09.35-.13.58-.13s.42.05.58.14c.16.09.29.21.39.36.1.15.17.32.22.51.04.19.06.38.05.58h-2.16c0,.12.02.25.05.38ZM34.26,15.65c-.04-.12-.1-.23-.18-.32-.08-.09-.17-.17-.28-.22-.11-.06-.23-.08-.37-.08s-.27.03-.38.08c-.11.06-.2.13-.28.22s-.14.2-.18.32c-.05.12-.08.25-.09.37h1.82c0-.13-.03-.26-.07-.38Z" style="fill:#00416b; stroke-width:0px;"/><path d="M35.48,14.82v.49h.01c.07-.17.18-.31.35-.41.17-.1.35-.16.55-.16s.36.03.49.08c.13.05.24.12.32.22.08.09.14.21.17.34.03.13.05.29.05.45v1.81h-.34v-1.76c0-.12-.01-.23-.03-.34-.02-.1-.06-.19-.11-.27-.05-.08-.13-.14-.22-.18-.09-.04-.21-.07-.35-.07s-.26.02-.37.07c-.11.05-.2.12-.27.2-.07.09-.13.19-.17.31-.04.12-.06.25-.07.38v1.64h-.34v-2.81h.34Z" style="fill:#00416b; stroke-width:0px;"/><path d="M38.32,16.7c.03.13.09.25.17.36.08.11.17.19.29.26.12.07.26.1.42.1.25,0,.45-.07.59-.2.14-.13.24-.31.29-.52h.34c-.07.32-.21.57-.4.74-.19.17-.47.26-.83.26-.22,0-.41-.04-.58-.12-.16-.08-.29-.19-.39-.32-.1-.14-.18-.29-.23-.47-.05-.18-.07-.37-.07-.57,0-.19.02-.37.07-.55.05-.18.12-.34.23-.48.1-.14.23-.25.39-.34.16-.09.35-.13.58-.13s.42.05.58.14c.16.09.29.21.39.36.1.15.17.32.22.51.04.19.06.38.05.58h-2.16c0,.12.02.25.05.38ZM40.02,15.65c-.04-.12-.1-.23-.18-.32-.08-.09-.17-.17-.28-.22-.11-.06-.23-.08-.37-.08s-.27.03-.38.08c-.11.06-.2.13-.28.22-.08.09-.14.2-.18.32-.05.12-.08.25-.09.37h1.82c0-.13-.03-.26-.07-.38Z" style="fill:#00416b; stroke-width:0px;"/><path d="M41.21,14.82v.66h.01c.09-.23.22-.41.41-.53.18-.12.4-.18.66-.17v.34c-.16,0-.3.01-.43.06-.13.05-.24.12-.33.21-.09.09-.16.2-.22.32-.05.13-.08.26-.08.41v1.5h-.34v-2.81h.32Z" style="fill:#00416b; stroke-width:0px;"/><path d="M42.68,15.26c.06-.12.14-.22.24-.29.1-.08.22-.13.35-.17.13-.04.28-.05.45-.05.12,0,.25.01.37.04.12.02.23.07.33.13.1.07.18.16.24.28.06.12.09.27.09.46v1.49c0,.14.07.21.2.21.04,0,.08,0,.11-.02v.29s-.08.01-.11.02c-.03,0-.07,0-.12,0-.09,0-.16-.01-.21-.04-.05-.02-.09-.06-.12-.1-.03-.04-.05-.1-.06-.16,0-.06-.01-.13-.01-.2h-.01c-.06.09-.12.17-.19.24-.06.07-.13.13-.21.18-.08.05-.17.08-.27.11-.1.03-.22.04-.36.04s-.25-.02-.37-.05c-.11-.03-.21-.08-.3-.15-.09-.07-.15-.15-.2-.26-.05-.1-.07-.23-.07-.37,0-.2.04-.35.13-.46.09-.11.2-.2.35-.25.14-.06.31-.1.49-.12.18-.02.36-.05.55-.07.07,0,.14-.02.19-.03.05-.01.1-.03.14-.06.04-.03.06-.06.08-.11.02-.05.03-.11.03-.19,0-.12-.02-.21-.06-.29-.04-.07-.09-.13-.16-.18-.07-.04-.15-.07-.23-.09-.09-.02-.18-.02-.29-.02-.22,0-.4.05-.53.16-.14.1-.21.27-.22.5h-.34c.01-.16.05-.31.1-.43ZM44.4,16.1s-.06.07-.13.09c-.06.02-.12.03-.16.04-.15.03-.3.05-.45.07-.15.02-.3.05-.42.09-.13.04-.23.1-.31.17-.08.07-.12.18-.12.32,0,.09.02.16.05.23.03.07.08.13.14.17.06.05.13.09.2.11.08.03.15.04.23.04.13,0,.26-.02.38-.06.12-.04.22-.1.31-.17.09-.08.16-.17.21-.28.05-.11.08-.23.08-.37v-.45h-.01Z" style="fill:#00416b; stroke-width:0px;"/><path d="M45.79,13.74v3.89h-.34v-3.89h.34Z" style="fill:#00416b; stroke-width:0px;"/><path d="M46.8,13.74v.55h-.34v-.55h.34ZM46.8,14.82v2.81h-.34v-2.81h.34Z" style="fill:#00416b; stroke-width:0px;"/><path d="M48.58,14.82v.29h-.57v1.9c0,.11.02.2.05.26.03.06.11.1.23.11.1,0,.2,0,.29-.02v.29c-.05,0-.1,0-.15,0-.05,0-.1,0-.15,0-.23,0-.39-.04-.48-.13-.09-.09-.13-.25-.13-.49v-1.92h-.49v-.29h.49v-.85h.34v.85h.57Z" style="fill:#00416b; stroke-width:0px;"/><path d="M49.15,15.26c.06-.12.14-.22.24-.29.1-.08.22-.13.35-.17.13-.04.28-.05.45-.05.12,0,.25.01.37.04.12.02.23.07.33.13.1.07.18.16.24.28.06.12.09.27.09.46v1.49c0,.14.07.21.2.21.04,0,.08,0,.11-.02v.29s-.08.01-.11.02c-.03,0-.07,0-.12,0-.09,0-.16-.01-.21-.04-.05-.02-.09-.06-.12-.1-.03-.04-.05-.1-.06-.16,0-.06-.01-.13-.01-.2h-.01c-.06.09-.12.17-.19.24-.06.07-.13.13-.21.18-.08.05-.17.08-.27.11-.1.03-.22.04-.36.04-.13,0-.25-.02-.37-.05-.11-.03-.21-.08-.3-.15-.09-.07-.15-.15-.2-.26-.05-.1-.07-.23-.07-.37,0-.2.04-.35.13-.46.09-.11.2-.2.35-.25.14-.06.31-.1.49-.12.18-.02.36-.05.55-.07.07,0,.14-.02.19-.03.05-.01.1-.03.14-.06.04-.03.06-.06.08-.11.02-.05.03-.11.03-.19,0-.12-.02-.21-.06-.29-.04-.07-.09-.13-.16-.18-.07-.04-.15-.07-.23-.09-.09-.02-.18-.02-.29-.02-.22,0-.4.05-.53.16-.14.1-.21.27-.22.5h-.34c.01-.16.05-.31.1-.43ZM50.86,16.1s-.06.07-.13.09c-.06.02-.12.03-.16.04-.15.03-.3.05-.45.07-.15.02-.29.05-.42.09-.13.04-.23.1-.31.17-.08.07-.12.18-.12.32,0,.09.02.16.05.23.03.07.08.13.14.17.06.05.13.09.2.11.08.03.15.04.23.04.13,0,.26-.02.38-.06.12-.04.22-.1.31-.17.09-.08.16-.17.21-.28.05-.11.08-.23.08-.37v-.45h-.01Z" style="fill:#00416b; stroke-width:0px;"/><path d="M53.02,14.82v.29h-.57v1.9c0,.11.02.2.05.26.03.06.11.1.23.11.1,0,.2,0,.29-.02v.29c-.05,0-.1,0-.15,0-.05,0-.1,0-.15,0-.23,0-.39-.04-.48-.13-.09-.09-.13-.25-.13-.49v-1.92h-.49v-.29h.49v-.85h.34v.85h.57Z" style="fill:#00416b; stroke-width:0px;"/><path d="M57.05,17.63v-.53h-.01c-.04.09-.09.17-.16.25-.07.08-.15.14-.24.19s-.19.09-.29.12c-.1.03-.21.04-.31.04-.21,0-.4-.04-.56-.12-.16-.08-.29-.19-.4-.32-.11-.14-.18-.29-.23-.47-.05-.18-.08-.37-.08-.57s.03-.39.08-.57c.05-.18.13-.34.23-.47.11-.14.24-.24.4-.32.16-.08.34-.12.56-.12.11,0,.21.01.31.04.1.03.19.06.28.12.09.05.16.12.23.19s.12.17.16.27h.01v-1.61h.34v3.89h-.32ZM55.16,16.66c.03.14.09.27.16.38s.17.2.29.28c.12.07.26.11.42.11.18,0,.34-.04.46-.11.13-.07.23-.16.31-.28.08-.11.13-.24.17-.38.03-.14.05-.29.05-.43s-.02-.29-.05-.43c-.03-.14-.09-.27-.17-.38-.08-.11-.18-.2-.31-.28-.13-.07-.28-.11-.46-.11-.16,0-.3.04-.42.11-.12.07-.21.16-.29.28-.07.11-.13.24-.16.38-.03.14-.05.29-.05.43s.02.29.05.43Z" style="fill:#00416b; stroke-width:0px;"/><path d="M58.27,16.7c.03.13.09.25.17.36.08.11.17.19.29.26.12.07.26.1.42.1.25,0,.45-.07.59-.2.14-.13.24-.31.29-.52h.34c-.07.32-.21.57-.4.74-.19.17-.47.26-.83.26-.22,0-.41-.04-.58-.12-.16-.08-.29-.19-.4-.32-.1-.14-.18-.29-.23-.47-.05-.18-.07-.37-.07-.57,0-.19.02-.37.07-.55.05-.18.12-.34.23-.48.1-.14.23-.25.4-.34.16-.09.35-.13.58-.13s.42.05.58.14c.16.09.29.21.39.36.1.15.17.32.22.51.04.19.06.38.05.58h-2.16c0,.12.02.25.05.38ZM59.97,15.65c-.04-.12-.1-.23-.18-.32-.08-.09-.17-.17-.28-.22-.11-.06-.23-.08-.37-.08s-.27.03-.38.08c-.11.06-.2.13-.28.22s-.14.2-.18.32c-.05.12-.08.25-.09.37h1.82c0-.13-.03-.26-.07-.38Z" style="fill:#00416b; stroke-width:0px;"/><path d="M64.96,14.52c-.07-.12-.17-.22-.27-.3-.11-.08-.23-.14-.35-.18-.13-.04-.26-.06-.41-.06-.26,0-.48.05-.67.15-.19.1-.34.23-.46.39-.12.16-.21.34-.26.55-.06.2-.08.41-.08.63s.03.42.08.62c.06.21.14.39.26.55.12.16.27.29.46.39.19.1.41.15.67.15.18,0,.35-.03.49-.1.15-.07.27-.15.38-.27.11-.11.19-.24.26-.4.07-.15.11-.31.13-.49h.37c-.03.24-.08.46-.17.65-.09.19-.2.36-.34.49-.14.13-.3.24-.49.31-.19.07-.4.11-.62.11-.31,0-.57-.06-.8-.17-.23-.11-.42-.26-.58-.44-.15-.19-.27-.4-.34-.64-.08-.24-.11-.5-.11-.77s.04-.53.11-.77c.08-.24.19-.46.34-.65.15-.19.34-.34.58-.45.23-.11.5-.17.8-.17.19,0,.37.03.54.08.18.05.34.14.48.24.14.11.26.24.36.4.1.16.16.34.18.54h-.37c-.03-.15-.09-.28-.16-.4Z" style="fill:#00416b; stroke-width:0px;"/><path d="M66.12,15.26c.06-.12.14-.22.24-.29.1-.08.22-.13.35-.17.13-.04.28-.05.45-.05.12,0,.25.01.37.04.12.02.23.07.33.13.1.07.18.16.24.28.06.12.09.27.09.46v1.49c0,.14.07.21.2.21.04,0,.08,0,.11-.02v.29s-.08.01-.11.02c-.03,0-.07,0-.12,0-.09,0-.16-.01-.21-.04-.05-.02-.09-.06-.12-.1-.03-.04-.05-.1-.06-.16,0-.06-.01-.13-.01-.2h-.01c-.06.09-.12.17-.19.24-.06.07-.13.13-.21.18-.08.05-.17.08-.27.11-.1.03-.22.04-.36.04s-.25-.02-.37-.05c-.11-.03-.21-.08-.3-.15-.09-.07-.15-.15-.2-.26-.05-.1-.07-.23-.07-.37,0-.2.04-.35.13-.46.09-.11.2-.2.35-.25.14-.06.31-.1.49-.12.18-.02.36-.05.55-.07.07,0,.14-.02.19-.03.05-.01.1-.03.14-.06.04-.03.06-.06.08-.11.02-.05.03-.11.03-.19,0-.12-.02-.21-.06-.29-.04-.07-.09-.13-.16-.18-.07-.04-.15-.07-.23-.09-.09-.02-.18-.02-.29-.02-.22,0-.4.05-.53.16-.14.1-.21.27-.22.5h-.34c.01-.16.05-.31.1-.43ZM67.84,16.1s-.06.07-.13.09-.12.03-.16.04c-.15.03-.3.05-.45.07-.15.02-.3.05-.42.09-.13.04-.23.1-.31.17-.08.07-.12.18-.12.32,0,.09.02.16.05.23.03.07.08.13.14.17.06.05.13.09.2.11.08.03.15.04.23.04.13,0,.26-.02.38-.06.12-.04.22-.1.31-.17.09-.08.16-.17.21-.28.05-.11.08-.23.08-.37v-.45h-.01Z" style="fill:#00416b; stroke-width:0px;"/><path d="M70,14.82v.29h-.57v1.9c0,.11.02.2.05.26.03.06.11.1.23.11.1,0,.2,0,.29-.02v.29c-.05,0-.1,0-.15,0-.05,0-.1,0-.15,0-.23,0-.39-.04-.48-.13-.09-.09-.13-.25-.13-.49v-1.92h-.49v-.29h.49v-.85h.34v.85h.57Z" style="fill:#00416b; stroke-width:0px;"/><path d="M70.57,15.26c.06-.12.14-.22.24-.29s.22-.13.35-.17c.13-.04.28-.05.45-.05.12,0,.25.01.37.04.12.02.23.07.33.13.1.07.18.16.24.28.06.12.09.27.09.46v1.49c0,.14.07.21.2.21.04,0,.08,0,.11-.02v.29s-.08.01-.11.02c-.03,0-.07,0-.12,0-.09,0-.16-.01-.21-.04-.05-.02-.09-.06-.12-.1-.03-.04-.05-.1-.06-.16,0-.06-.01-.13-.01-.2h-.01c-.06.09-.12.17-.19.24-.06.07-.13.13-.21.18-.08.05-.17.08-.27.11-.1.03-.22.04-.36.04-.13,0-.25-.02-.37-.05-.11-.03-.21-.08-.3-.15-.09-.07-.15-.15-.2-.26-.05-.1-.07-.23-.07-.37,0-.2.04-.35.13-.46.09-.11.2-.2.35-.25.14-.06.31-.1.49-.12.18-.02.36-.05.55-.07.07,0,.14-.02.19-.03.05-.01.1-.03.14-.06.04-.03.06-.06.08-.11.02-.05.03-.11.03-.19,0-.12-.02-.21-.06-.29-.04-.07-.09-.13-.16-.18-.07-.04-.15-.07-.23-.09-.09-.02-.18-.02-.29-.02-.22,0-.4.05-.53.16-.14.1-.21.27-.22.5h-.34c.01-.16.05-.31.1-.43ZM72.28,16.1s-.06.07-.13.09-.12.03-.16.04c-.15.03-.3.05-.45.07-.15.02-.29.05-.42.09-.13.04-.23.1-.31.17-.08.07-.12.18-.12.32,0,.09.02.16.05.23.03.07.08.13.14.17.06.05.13.09.2.11.08.03.15.04.23.04.13,0,.26-.02.38-.06.12-.04.22-.1.31-.17s.16-.17.21-.28c.05-.11.08-.23.08-.37v-.45h-.01Z" style="fill:#00416b; stroke-width:0px;"/><path d="M73.67,13.74v3.89h-.34v-3.89h.34Z" style="fill:#00416b; stroke-width:0px;"/><path d="M76.3,17.63v-.51h-.01c-.09.19-.22.33-.4.43-.17.1-.36.15-.58.15-.18,0-.33-.02-.46-.07-.13-.05-.23-.12-.31-.21-.08-.09-.14-.2-.17-.33-.04-.13-.05-.28-.05-.45v-1.83h.34v1.83c0,.25.07.45.18.58.11.13.3.2.58.2.15,0,.28-.03.38-.1.11-.06.19-.15.26-.25.07-.11.12-.23.15-.36.03-.14.05-.28.05-.42v-1.48h.34v2.81h-.32Z" style="fill:#00416b; stroke-width:0px;"/><path d="M77.6,14.82v.49h.01c.07-.17.18-.31.35-.41.17-.1.35-.16.55-.16s.36.03.49.08c.13.05.24.12.32.22.08.09.14.21.17.34.03.13.05.29.05.45v1.81h-.34v-1.76c0-.12-.01-.23-.03-.34-.02-.1-.06-.19-.11-.27-.05-.08-.13-.14-.22-.18-.09-.04-.21-.07-.35-.07s-.26.02-.37.07c-.11.05-.2.12-.27.2-.07.09-.13.19-.17.31-.04.12-.06.25-.07.38v1.64h-.34v-2.81h.34Z" style="fill:#00416b; stroke-width:0px;"/><path d="M80.24,14.82l.93,2.4.87-2.4h.34l-1.22,3.24c-.05.12-.1.22-.14.3-.04.08-.09.14-.14.19-.05.05-.11.08-.19.1-.07.02-.16.03-.27.03-.07,0-.12,0-.16,0-.04,0-.07,0-.1-.02v-.29s.08.01.12.02c.04,0,.08,0,.12,0,.08,0,.14-.01.19-.03.05-.02.09-.05.13-.09.04-.04.07-.08.09-.14.03-.05.05-.11.08-.18l.12-.32-1.12-2.8h.37Z" style="fill:#00416b; stroke-width:0px;"/><path d="M82.79,15.26c.06-.12.14-.22.24-.29.1-.08.22-.13.35-.17.13-.04.28-.05.45-.05.12,0,.25.01.37.04.12.02.23.07.33.13.1.07.18.16.24.28.06.12.09.27.09.46v1.49c0,.14.07.21.2.21.04,0,.08,0,.11-.02v.29s-.08.01-.11.02c-.03,0-.07,0-.12,0-.09,0-.16-.01-.21-.04-.05-.02-.09-.06-.12-.1-.03-.04-.05-.1-.06-.16,0-.06-.01-.13-.01-.2h-.01c-.06.09-.12.17-.19.24-.06.07-.13.13-.21.18-.08.05-.17.08-.27.11-.1.03-.22.04-.36.04s-.25-.02-.37-.05c-.11-.03-.21-.08-.3-.15-.09-.07-.15-.15-.2-.26-.05-.1-.07-.23-.07-.37,0-.2.04-.35.13-.46.09-.11.2-.2.35-.25.14-.06.31-.1.49-.12.18-.02.36-.05.55-.07.07,0,.14-.02.19-.03.05-.01.1-.03.14-.06.04-.03.06-.06.08-.11.02-.05.03-.11.03-.19,0-.12-.02-.21-.06-.29-.04-.07-.09-.13-.16-.18-.07-.04-.15-.07-.23-.09-.09-.02-.18-.02-.29-.02-.22,0-.4.05-.53.16-.14.1-.21.27-.22.5h-.34c.01-.16.05-.31.1-.43ZM84.5,16.1s-.06.07-.13.09-.12.03-.16.04c-.15.03-.3.05-.45.07-.15.02-.3.05-.42.09-.13.04-.23.1-.31.17-.08.07-.12.18-.12.32,0,.09.02.16.05.23.03.07.08.13.14.17.06.05.13.09.2.11.08.03.15.04.23.04.13,0,.26-.02.38-.06.12-.04.22-.1.31-.17.09-.08.16-.17.21-.28.05-.11.08-.23.08-.37v-.45h-.01Z" style="fill:#00416b; stroke-width:0px;"/><path d="M29.89,19.19l1.53,3.89h-.4l-.47-1.21h-1.77l-.47,1.21h-.39l1.57-3.89h.41ZM30.42,21.56l-.75-2-.78,2h1.53Z" style="fill:#00416b; stroke-width:0px;"/><path d="M31.99,20.27v3.07c0,.11,0,.21-.02.3-.02.09-.05.18-.09.25-.05.07-.11.13-.19.17-.08.04-.18.06-.3.06-.04,0-.08,0-.12,0-.04,0-.08,0-.12,0v-.28s.06,0,.09,0c.03,0,.06,0,.09,0,.13,0,.22-.04.26-.12.04-.08.05-.18.05-.29v-3.15h.34ZM31.99,19.19v.55h-.34v-.55h.34Z" style="fill:#00416b; stroke-width:0px;"/><path d="M34.54,23.09v-.51h-.01c-.09.19-.22.33-.4.43-.17.1-.36.15-.58.15-.18,0-.33-.02-.46-.07-.13-.05-.23-.12-.31-.21-.08-.09-.14-.2-.17-.33-.04-.13-.05-.28-.05-.45v-1.83h.34v1.83c0,.25.07.45.18.58.11.13.3.2.58.2.15,0,.28-.03.38-.1.11-.06.19-.15.26-.25.07-.11.12-.23.15-.36.03-.14.05-.28.05-.42v-1.48h.34v2.81h-.32Z" style="fill:#00416b; stroke-width:0px;"/><path d="M35.78,20.27v.49h.01c.07-.17.18-.31.35-.41.17-.1.35-.16.55-.16s.36.03.49.08c.13.05.24.12.32.22.08.09.14.21.17.34.03.13.05.29.05.45v1.81h-.34v-1.76c0-.12-.01-.23-.03-.34-.02-.1-.06-.19-.11-.27-.05-.08-.13-.14-.22-.18-.09-.04-.21-.07-.35-.07s-.26.02-.37.07c-.11.05-.2.12-.27.2-.07.09-.13.19-.17.31-.04.12-.06.25-.07.38v1.64h-.34v-2.81h.34Z" style="fill:#00416b; stroke-width:0px;"/><path d="M39.42,20.27v.29h-.57v1.9c0,.11.02.2.05.26.03.06.11.1.23.11.1,0,.2,0,.29-.02v.29c-.05,0-.1,0-.15,0-.05,0-.1,0-.15,0-.23,0-.39-.04-.48-.13-.09-.09-.13-.25-.13-.49v-1.92h-.49v-.29h.49v-.85h.34v.85h.57Z" style="fill:#00416b; stroke-width:0px;"/><path d="M39.92,20.71c.06-.12.14-.22.24-.29.1-.08.22-.13.35-.17.13-.04.28-.05.45-.05.12,0,.25.01.37.04.12.02.23.07.33.13.1.07.18.16.24.28.06.12.09.27.09.46v1.49c0,.14.07.21.2.21.04,0,.08,0,.11-.02v.29s-.08.01-.11.02c-.03,0-.07,0-.12,0-.09,0-.16-.01-.21-.04-.05-.02-.09-.06-.12-.1-.03-.04-.05-.1-.06-.16,0-.06-.01-.13-.01-.2h-.01c-.06.09-.12.17-.19.24-.06.07-.13.13-.21.18-.08.05-.17.08-.27.11-.1.03-.22.04-.36.04-.13,0-.25-.02-.37-.05-.11-.03-.21-.08-.3-.15-.09-.07-.15-.15-.2-.26-.05-.1-.07-.23-.07-.37,0-.2.04-.35.13-.46.09-.11.2-.2.35-.25.14-.06.31-.1.49-.12.18-.02.36-.05.55-.07.07,0,.14-.02.19-.03.05-.01.1-.03.14-.06.04-.03.06-.06.08-.11.02-.05.03-.11.03-.19,0-.12-.02-.21-.06-.29-.04-.07-.09-.13-.16-.18-.07-.04-.15-.07-.23-.09-.09-.02-.18-.02-.29-.02-.22,0-.4.05-.53.16-.14.1-.21.27-.22.5h-.34c.01-.16.05-.31.1-.43ZM41.64,21.55s-.06.07-.13.09c-.06.02-.12.03-.16.04-.15.03-.3.05-.45.07-.15.02-.29.05-.42.09-.13.04-.23.1-.31.17-.08.07-.12.18-.12.32,0,.09.02.16.05.23.03.07.08.13.14.17.06.05.13.09.2.11.08.03.15.04.23.04.13,0,.26-.02.38-.06.12-.04.22-.1.31-.17.09-.08.16-.17.21-.28.05-.11.08-.23.08-.37v-.45h-.01Z" style="fill:#00416b; stroke-width:0px;"/><path d="M42.93,20.27v.47h.02c.09-.17.21-.31.36-.41.15-.1.34-.15.56-.15.19,0,.35.05.5.14.15.09.25.23.3.41.08-.19.21-.32.37-.41.16-.09.34-.14.52-.14.62,0,.93.33.93.99v1.91h-.34v-1.89c0-.23-.05-.41-.15-.53-.1-.12-.27-.18-.52-.18-.15,0-.27.03-.37.08-.1.06-.18.13-.23.23-.06.09-.1.2-.12.32-.02.12-.04.25-.04.38v1.59h-.34v-1.91c0-.09-.01-.18-.03-.27s-.05-.16-.1-.22c-.05-.06-.11-.11-.18-.15-.08-.04-.17-.05-.28-.05-.15,0-.27.03-.38.08-.11.05-.19.13-.26.22-.07.09-.12.2-.15.33s-.05.26-.05.41v1.57h-.34v-2.81h.32Z" style="fill:#00416b; stroke-width:0px;"/><path d="M47.34,22.16c.03.13.09.25.17.36.08.11.17.19.29.26.12.07.26.1.42.1.25,0,.45-.07.59-.2.14-.13.24-.31.29-.52h.34c-.07.32-.21.57-.4.74-.19.17-.47.26-.83.26-.22,0-.41-.04-.58-.12s-.29-.19-.39-.32c-.1-.14-.18-.29-.23-.47-.05-.18-.07-.37-.07-.57,0-.19.02-.37.07-.55.05-.18.12-.34.23-.48.1-.14.23-.25.39-.34.16-.09.35-.13.58-.13s.42.05.58.14c.16.09.29.21.39.36.1.15.17.32.22.51.04.19.06.38.05.58h-2.16c0,.12.02.25.05.38ZM49.04,21.11c-.04-.12-.1-.23-.18-.32-.08-.09-.17-.17-.28-.22-.11-.06-.23-.08-.37-.08s-.27.03-.38.08c-.11.06-.2.13-.28.22s-.14.2-.18.32c-.05.12-.08.25-.09.37h1.82c0-.13-.03-.26-.07-.38Z" style="fill:#00416b; stroke-width:0px;"/><path d="M50.18,20.27v.49h.01c.07-.17.18-.31.35-.41.17-.1.35-.16.55-.16s.36.03.49.08c.13.05.24.12.32.22.08.09.14.21.17.34.03.13.05.29.05.45v1.81h-.34v-1.76c0-.12-.01-.23-.03-.34-.02-.1-.06-.19-.11-.27-.05-.08-.13-.14-.22-.18-.09-.04-.21-.07-.35-.07s-.26.02-.37.07c-.11.05-.2.12-.27.2-.07.09-.13.19-.17.31-.04.12-.06.25-.07.38v1.64h-.34v-2.81h.34Z" style="fill:#00416b; stroke-width:0px;"/><path d="M53.83,20.27v.29h-.57v1.9c0,.11.02.2.05.26.03.06.11.1.23.11.1,0,.2,0,.29-.02v.29c-.05,0-.1,0-.15,0-.05,0-.1,0-.15,0-.23,0-.39-.04-.48-.13-.09-.09-.13-.25-.13-.49v-1.92h-.49v-.29h.49v-.85h.34v.85h.57Z" style="fill:#00416b; stroke-width:0px;"/><path d="M57.71,23.09v-.53h-.01c-.04.09-.09.17-.16.25-.07.08-.15.14-.24.19-.09.05-.19.09-.29.12-.1.03-.21.04-.31.04-.21,0-.4-.04-.56-.12-.16-.08-.29-.19-.4-.32-.11-.14-.18-.29-.23-.47s-.08-.37-.08-.57.03-.39.08-.57c.05-.18.13-.34.23-.47.11-.14.24-.24.4-.32.16-.08.34-.12.56-.12.11,0,.21.01.31.04.1.03.19.06.28.12.09.05.16.12.23.19.07.08.12.17.16.27h.01v-1.61h.34v3.89h-.32ZM55.82,22.11c.03.14.09.27.16.38.07.11.17.2.29.28.12.07.26.11.42.11.18,0,.34-.04.46-.11.13-.07.23-.16.31-.28.08-.11.13-.24.17-.38s.05-.29.05-.43-.02-.29-.05-.43c-.03-.14-.09-.27-.17-.38-.08-.11-.18-.2-.31-.28-.13-.07-.28-.11-.46-.11-.16,0-.3.04-.42.11-.12.07-.21.16-.29.28-.07.11-.13.24-.16.38-.03.14-.05.29-.05.43s.02.29.05.43Z" style="fill:#00416b; stroke-width:0px;"/><path d="M58.87,22.16c.03.13.09.25.17.36.08.11.17.19.29.26.12.07.26.1.42.1.25,0,.45-.07.59-.2.14-.13.24-.31.29-.52h.34c-.07.32-.21.57-.4.74-.19.17-.47.26-.83.26-.22,0-.41-.04-.58-.12-.16-.08-.29-.19-.4-.32-.1-.14-.18-.29-.23-.47-.05-.18-.07-.37-.07-.57,0-.19.02-.37.07-.55.05-.18.12-.34.23-.48.1-.14.23-.25.4-.34.16-.09.35-.13.58-.13s.42.05.58.14c.16.09.29.21.39.36.1.15.17.32.22.51.04.19.06.38.05.58h-2.16c0,.12.02.25.05.38ZM60.57,21.11c-.04-.12-.1-.23-.18-.32s-.17-.17-.28-.22c-.11-.06-.23-.08-.37-.08s-.27.03-.38.08c-.11.06-.2.13-.28.22-.08.09-.14.2-.18.32-.05.12-.08.25-.09.37h1.82c0-.13-.03-.26-.07-.38Z" style="fill:#00416b; stroke-width:0px;"/><path d="M64.38,19.19c.16,0,.32.02.47.05.15.03.28.08.4.16.11.07.21.17.28.29.07.12.1.27.1.46,0,.1-.02.2-.05.3-.03.1-.08.18-.14.26-.06.08-.13.14-.21.2-.08.05-.17.09-.28.11h0c.25.04.45.15.6.32.15.17.22.39.22.64,0,.06,0,.13-.02.21-.01.08-.03.16-.07.24-.03.08-.08.16-.14.24-.06.08-.14.15-.25.21-.1.06-.23.11-.38.15-.15.04-.33.06-.54.06h-1.65v-3.89h1.65ZM64.38,20.9c.15,0,.28-.02.39-.05.11-.03.2-.08.27-.14.07-.06.13-.13.16-.21.04-.08.05-.17.05-.26,0-.49-.29-.73-.88-.73h-1.28v1.39h1.28ZM64.38,22.77c.14,0,.27-.01.39-.04.12-.02.23-.07.33-.13.09-.06.17-.14.22-.25.05-.1.08-.23.08-.39,0-.25-.09-.44-.26-.56-.18-.13-.43-.19-.76-.19h-1.28v1.55h1.28Z" style="fill:#00416b; stroke-width:0px;"/><path d="M66.31,20.71c.06-.12.14-.22.24-.29.1-.08.22-.13.35-.17.13-.04.28-.05.45-.05.12,0,.25.01.37.04.12.02.23.07.33.13.1.07.18.16.24.28.06.12.09.27.09.46v1.49c0,.14.07.21.2.21.04,0,.08,0,.11-.02v.29s-.08.01-.11.02c-.03,0-.07,0-.12,0-.09,0-.16-.01-.21-.04-.05-.02-.09-.06-.12-.1-.03-.04-.05-.1-.06-.16,0-.06-.01-.13-.01-.2h-.01c-.06.09-.12.17-.19.24-.06.07-.13.13-.21.18-.08.05-.17.08-.27.11-.1.03-.22.04-.36.04s-.25-.02-.37-.05c-.11-.03-.21-.08-.3-.15-.09-.07-.15-.15-.2-.26-.05-.1-.07-.23-.07-.37,0-.2.04-.35.13-.46.09-.11.2-.2.35-.25.14-.06.31-.1.49-.12.18-.02.36-.05.55-.07.07,0,.14-.02.19-.03.05-.01.1-.03.14-.06.04-.03.06-.06.08-.11.02-.05.03-.11.03-.19,0-.12-.02-.21-.06-.29-.04-.07-.09-.13-.16-.18-.07-.04-.15-.07-.23-.09-.09-.02-.18-.02-.29-.02-.22,0-.4.05-.53.16-.14.1-.21.27-.22.5h-.34c.01-.16.05-.31.1-.43ZM68.03,21.55s-.06.07-.13.09c-.06.02-.12.03-.16.04-.15.03-.3.05-.45.07-.15.02-.3.05-.42.09-.13.04-.23.1-.31.17-.08.07-.12.18-.12.32,0,.09.02.16.05.23.03.07.08.13.14.17.06.05.13.09.2.11.08.03.15.04.23.04.13,0,.26-.02.38-.06.12-.04.22-.1.31-.17.09-.08.16-.17.21-.28.05-.11.08-.23.08-.37v-.45h-.01Z" style="fill:#00416b; stroke-width:0px;"/><path d="M69.31,20.27v.66h.01c.09-.23.22-.41.41-.53.18-.12.4-.18.66-.17v.34c-.16,0-.3.01-.43.06-.13.05-.24.12-.33.21-.09.09-.16.2-.22.32-.05.13-.08.26-.08.41v1.5h-.34v-2.81h.32Z" style="fill:#00416b; stroke-width:0px;"/><path d="M72.27,20.66c-.13-.12-.31-.18-.53-.18-.16,0-.31.03-.43.1-.12.07-.23.16-.31.27-.08.11-.14.24-.19.38-.04.14-.06.29-.06.44s.02.3.06.44c.04.14.1.27.19.38.08.11.18.2.31.27.12.07.27.1.43.1.11,0,.21-.02.3-.06.09-.04.18-.1.25-.17.07-.07.13-.16.18-.25.05-.1.08-.21.09-.32h.34c-.05.34-.17.61-.38.8-.2.19-.47.29-.79.29-.21,0-.4-.04-.57-.12-.17-.08-.3-.18-.42-.32-.11-.13-.2-.29-.26-.47-.06-.18-.09-.37-.09-.58s.03-.4.09-.58c.06-.18.14-.34.26-.47.11-.13.25-.24.42-.32.16-.08.36-.12.57-.12.3,0,.56.08.77.24.21.16.33.4.37.73h-.34c-.05-.21-.13-.38-.26-.5Z" style="fill:#00416b; stroke-width:0px;"/><path d="M73.56,22.16c.03.13.09.25.17.36.08.11.17.19.29.26.12.07.26.1.42.1.25,0,.45-.07.59-.2.14-.13.24-.31.29-.52h.34c-.07.32-.21.57-.4.74-.19.17-.47.26-.83.26-.22,0-.41-.04-.58-.12-.16-.08-.29-.19-.39-.32-.1-.14-.18-.29-.23-.47-.05-.18-.07-.37-.07-.57,0-.19.02-.37.07-.55.05-.18.12-.34.23-.48.1-.14.23-.25.39-.34.16-.09.35-.13.58-.13s.42.05.58.14c.16.09.29.21.39.36.1.15.17.32.22.51.04.19.06.38.05.58h-2.16c0,.12.02.25.05.38ZM75.26,21.11c-.04-.12-.1-.23-.18-.32s-.17-.17-.28-.22c-.11-.06-.23-.08-.37-.08s-.27.03-.38.08c-.11.06-.2.13-.28.22-.08.09-.14.2-.18.32-.05.12-.08.25-.09.37h1.82c0-.13-.03-.26-.07-.38Z" style="fill:#00416b; stroke-width:0px;"/><path d="M76.42,19.19v3.89h-.34v-3.89h.34Z" style="fill:#00416b; stroke-width:0px;"/><path d="M78.77,20.31c.17.08.3.19.42.32.11.13.2.29.26.47.06.18.09.37.09.58s-.03.4-.09.58c-.06.18-.14.34-.26.47-.11.13-.25.24-.42.32-.17.08-.36.12-.57.12s-.4-.04-.57-.12c-.17-.08-.3-.18-.42-.32-.11-.13-.2-.29-.26-.47-.06-.18-.09-.37-.09-.58s.03-.4.09-.58c.06-.18.14-.34.26-.47.11-.13.25-.24.42-.32.17-.08.36-.12.57-.12s.4.04.57.12ZM77.77,20.58c-.12.07-.23.16-.31.27-.08.11-.14.24-.19.38-.04.14-.06.29-.06.44s.02.3.06.44c.04.14.1.27.19.38.08.11.18.2.31.27.12.07.27.1.43.1s.31-.03.43-.1c.12-.07.23-.16.31-.27.08-.11.14-.24.19-.38.04-.14.06-.29.06-.44s-.02-.3-.06-.44c-.04-.14-.1-.27-.19-.38-.08-.11-.18-.2-.31-.27-.12-.07-.27-.1-.43-.1s-.31.03-.43.1Z" style="fill:#00416b; stroke-width:0px;"/><path d="M80.31,20.27v.49h.01c.07-.17.18-.31.35-.41.17-.1.35-.16.55-.16s.36.03.49.08c.13.05.24.12.32.22.08.09.14.21.17.34.03.13.05.29.05.45v1.81h-.34v-1.76c0-.12-.01-.23-.03-.34-.02-.1-.06-.19-.11-.27-.05-.08-.13-.14-.22-.18-.09-.04-.21-.07-.35-.07s-.26.02-.37.07c-.11.05-.2.12-.27.2-.07.09-.13.19-.17.31-.04.12-.06.25-.07.38v1.64h-.34v-2.81h.34Z" style="fill:#00416b; stroke-width:0px;"/><path d="M82.91,20.71c.06-.12.14-.22.24-.29.1-.08.22-.13.35-.17.13-.04.28-.05.45-.05.12,0,.25.01.37.04.12.02.23.07.33.13.1.07.18.16.24.28.06.12.09.27.09.46v1.49c0,.14.07.21.2.21.04,0,.08,0,.11-.02v.29s-.08.01-.11.02c-.03,0-.07,0-.12,0-.09,0-.16-.01-.21-.04s-.09-.06-.12-.1c-.03-.04-.05-.1-.06-.16,0-.06-.01-.13-.01-.2h-.01c-.06.09-.12.17-.19.24-.06.07-.13.13-.21.18-.08.05-.17.08-.27.11-.1.03-.22.04-.36.04s-.25-.02-.37-.05c-.11-.03-.21-.08-.3-.15-.09-.07-.15-.15-.2-.26-.05-.1-.07-.23-.07-.37,0-.2.04-.35.13-.46.09-.11.2-.2.35-.25.14-.06.31-.1.49-.12.18-.02.36-.05.55-.07.07,0,.14-.02.19-.03.05-.01.1-.03.14-.06.04-.03.06-.06.08-.11.02-.05.03-.11.03-.19,0-.12-.02-.21-.06-.29-.04-.07-.09-.13-.16-.18-.07-.04-.15-.07-.23-.09-.09-.02-.18-.02-.29-.02-.22,0-.4.05-.53.16-.14.1-.21.27-.22.5h-.34c.01-.16.05-.31.1-.43ZM84.62,21.55s-.06.07-.13.09c-.06.02-.12.03-.16.04-.15.03-.3.05-.45.07-.15.02-.3.05-.42.09-.13.04-.23.1-.31.17-.08.07-.12.18-.12.32,0,.09.02.16.05.23.03.07.08.13.14.17.06.05.13.09.2.11.08.03.15.04.23.04.13,0,.26-.02.38-.06.12-.04.22-.1.31-.17.09-.08.16-.17.21-.28.05-.11.08-.23.08-.37v-.45h-.01Z" style="fill:#00416b; stroke-width:0px;"/><path d="M12.22,4.68c2.91,0,5.31,2.19,5.5,5.41.01.22-.17.41-.4.41H7.07c-.2,0-.37-.16-.36-.36.07-3.07,2.6-5.46,5.52-5.46M17.66,16.73c-.27,0-.52.14-.64.38-.87,1.78-2.69,3.02-4.8,3.02-2.8,0-5.35-2.31-5.37-5.3,0-.24.19-.45.43-.45h15.24c.68,0,1.23-.53,1.28-1.2.02-.23.03-.47.03-.73C23.83,5.62,18.69.08,12.14.08S.29,5.62.29,12.46s5.31,12.37,11.86,12.37c4.8,0,8.92-2.98,10.78-7.27.17-.39-.12-.83-.55-.83h-4.72Z" style="fill:#00416b; stroke-width:0px;"/></svg>