<?xml version="1.0" encoding="UTF-8"?><svg id="a" xmlns="http://www.w3.org/2000/svg" viewBox="0 0 166.93 24.93"><path d="M9.93.12C4.56.12.2,5.2.2,11.47s4.36,11.35,9.73,11.35,9.73-5.08,9.73-11.35S15.31.12,9.93.12h0Z" style="fill:#e40520; stroke-width:0px;"/><path d="M3.15,16.9c-.87-1.55-1.38-3.42-1.38-5.43s.51-3.88,1.38-5.43v10.86h0Z" style="fill:#fff; stroke-width:0px;"/><path d="M5.22,3.5c.54-.46,1.14-.84,1.77-1.14v18.21c-.63-.29-1.22-.67-1.77-1.13V3.5h0Z" style="fill:#fff; stroke-width:0px;"/><path d="M9.05,1.76c.29-.04.58-.06.88-.06s.59.02.89.06v19.4c-.29.04-.59.06-.89.06s-.59-.02-.88-.06V1.76h0Z" style="fill:#fff; stroke-width:0px;"/><path d="M12.89,2.37c.63.29,1.22.68,1.77,1.14v15.93c-.54.46-1.14.84-1.77,1.14V2.37h0Z" style="fill:#fff; stroke-width:0px;"/><path d="M16.73,6.05c.87,1.55,1.37,3.41,1.37,5.42s-.51,3.87-1.37,5.42V6.05h0Z" style="fill:#fff; stroke-width:0px;"/><path d="M14.66,2.53v.54c-.55-.44-1.14-.8-1.77-1.07v-.47c.62.26,1.21.6,1.77,1h0Z" style="fill:#fff; stroke-width:0px;"/><path d="M9.93.93c.3,0,.59.02.89.05v.44c-.29-.03-.59-.05-.89-.05s-.59.02-.88.05v-.44c.29-.03.58-.05.88-.05h0Z" style="fill:#fff; stroke-width:0px;"/><path d="M6.99,1.52v.47c-.63.27-1.22.64-1.77,1.07v-.54c.55-.41,1.14-.74,1.77-1h0Z" style="fill:#fff; stroke-width:0px;"/><path d="M1.01,11.47c0-2.61.81-5,2.14-6.85v.77c-1.08,1.69-1.71,3.8-1.71,6.08s.64,4.39,1.71,6.08v.77c-1.34-1.84-2.14-4.23-2.14-6.85h0Z" style="fill:#fff; stroke-width:0px;"/><path d="M5.22,20.41v-.54c.55.44,1.14.8,1.77,1.07v.47c-.62-.26-1.22-.59-1.77-1h0Z" style="fill:#fff; stroke-width:0px;"/><path d="M9.93,22c-.3,0-.59-.02-.88-.05v-.44c.29.04.58.05.88.05s.59-.02.89-.05v.44c-.29.03-.59.05-.89.05h0Z" style="fill:#fff; stroke-width:0px;"/><path d="M12.89,21.41v-.47c.63-.28,1.22-.64,1.77-1.07v.54c-.55.41-1.14.74-1.77,1h0Z" style="fill:#fff; stroke-width:0px;"/><path d="M16.73,17.54c1.07-1.69,1.71-3.79,1.71-6.07s-.64-4.38-1.71-6.07v-.77c1.33,1.84,2.14,4.23,2.14,6.84s-.8,5-2.14,6.84v-.77h0Z" style="fill:#fff; stroke-width:0px;"/><path d="M19.42,21.66c.07-.28.3-.55.45-.79-.2-.1-.45-.23-.63-.38.38-.58.52-.87.58-1.56l-.05-3.6h-.05c-.31,1.08-.73,2.28-1.34,3.16-.17.25-.2.32-.3.46-.12.18-.37.55-.36,1.19-.22.04-.48-.01-.73-.03.03.27.07.33,0,.77-1.04.04-1.24.68-2.36,1.26-.51.27-.73.37-1.41.63v.06c2.11-.07,3.04.28,4.21-.51.14.18.21.43.3.65.17-.13.52-.37.79-.44.31.31.77.48,1.3.43.08-.43-.07-1.01-.41-1.3h0Z" style="fill:#e40520; stroke-width:0px;"/><path d="M19.6,20.94c-.14.06-.86.3-.86.3h0s-.02-.1-.04-.16h0c.25-.16.38-.36.38-.39,0,0,.03-.03.03-.03,0,0,0,0,0,0,.02.03.3.24.5.28h0Z" style="fill:#fff; stroke-width:0px;"/><path d="M19.1,17.68c.56-1.44.46-1.48.62-2.08-.16,2.01-.76,3.66-1.34,5.18,0,0-.13-.04-.2-.03-.12-.14-.15-.34-.15-.34-.3-.98.64-1.61,1.07-2.73h0Z" style="fill:#fff; stroke-width:0px;"/><path d="M17.21,20.33l.64.53h0s-.04.03-.05.05c-.03.03-.06.06-.08.1h0c-.31-.14-.51-.14-.51-.14.08-.34,0-.54,0-.54h0Z" style="fill:#fff; stroke-width:0px;"/><path d="M13.53,22.74l.82-.26c1.29-.46,1.76-1.43,2.73-1.37.21.02.38.06.55.16h0c0,.06.01.14.03.2h-.01c-.81.49-2.59,1.05-4.12,1.27h0Z" style="fill:#fff; stroke-width:0px;"/><path d="M17.81,22.69c-.04-.1-.06-.34-.2-.5.2-.16.24-.26.3-.42h0c.06.04.13.06.2.06h0s-.31.85-.31.85h0Z" style="fill:#fff; stroke-width:0px;"/><path d="M17.96,21.52c-.12-.12-.12-.33,0-.45.12-.12.33-.12.45,0,.12.13.12.33,0,.45-.13.12-.33.12-.45,0h0Z" style="fill:#fff; stroke-width:0px;"/><path d="M18.58,22.25c-.14-.17-.13-.22-.19-.45.07-.02.18-.1.23-.17l1,1.07c-.37.03-.81-.18-1.04-.46h0Z" style="fill:#fff; stroke-width:0px;"/><path d="M19.42,1.32c.07.28.3.55.45.79-.2.1-.45.23-.63.38.38.58.52.87.58,1.56l-.05,3.6h-.05c-.31-1.08-.73-2.28-1.34-3.16-.17-.25-.2-.32-.3-.46-.12-.18-.37-.55-.36-1.19-.22-.04-.48.01-.73.03.03-.27.07-.33,0-.77-1.04-.04-1.24-.68-2.36-1.26-.51-.27-.73-.37-1.41-.63v-.06c2.11.07,3.04-.28,4.21.51.14-.18.21-.43.3-.65.17.13.52.37.79.44.31-.31.77-.48,1.3-.43.08.43-.07,1.01-.41,1.3h0Z" style="fill:#e40520; stroke-width:0px;"/><path d="M19.6,2.04c-.14-.06-.86-.3-.86-.3h0s-.02.1-.04.16h0c.25.16.38.36.38.39,0,0,.03.03.03.03,0,0,0,0,0,0,.02-.03.3-.24.5-.28h0Z" style="fill:#fff; stroke-width:0px;"/><path d="M19.1,5.3c.56,1.43.46,1.48.62,2.08-.16-2.01-.76-3.66-1.34-5.18,0,0-.13.04-.2.03-.12.14-.15.34-.15.34-.3.98.64,1.61,1.07,2.74h0Z" style="fill:#fff; stroke-width:0px;"/><path d="M17.21,2.65l.64-.53h0s-.04-.03-.05-.05c-.03-.03-.06-.07-.08-.1h0c-.31.14-.51.14-.51.14.08.34,0,.54,0,.54h0Z" style="fill:#fff; stroke-width:0px;"/><path d="M13.53.25l.82.25c1.29.46,1.76,1.43,2.73,1.37.21-.02.38-.06.55-.16h0c0-.07.01-.14.03-.2h-.01c-.81-.49-2.59-1.05-4.12-1.27h0Z" style="fill:#fff; stroke-width:0px;"/><path d="M17.81.29c-.04.1-.06.34-.2.5.2.17.24.26.3.42h0c.06-.04.13-.06.2-.07h0s-.31-.85-.31-.85h0Z" style="fill:#fff; stroke-width:0px;"/><path d="M17.96,1.45c-.12.12-.12.33,0,.45.12.12.33.12.45,0,.12-.12.12-.33,0-.45-.13-.12-.33-.12-.45,0h0Z" style="fill:#fff; stroke-width:0px;"/><path d="M18.58.73c-.14.17-.13.22-.19.45.07.02.18.1.23.16l1-1.07c-.37-.03-.81.18-1.04.46h0Z" style="fill:#fff; stroke-width:0px;"/><path d="M.45,21.64c-.07-.28-.3-.55-.45-.79.2-.1.45-.23.63-.38-.38-.58-.52-.87-.58-1.56l.05-3.6h.05c.31,1.08.73,2.28,1.33,3.16.17.25.2.32.3.46.12.18.37.55.36,1.19.22.04.48-.01.73-.03-.03.27-.07.32,0,.77,1.04.04,1.24.68,2.36,1.26.51.27.73.37,1.41.63v.06c-2.11-.07-3.04.28-4.21-.51-.14.18-.21.43-.3.65-.17-.13-.52-.37-.79-.44-.31.31-.77.48-1.3.43-.08-.43.07-1.01.41-1.3H.45Z" style="fill:#e40520; stroke-width:0px;"/><path d="M.27,20.92c.14.06.86.3.86.3h0s.02-.1.04-.16h0c-.25-.16-.38-.36-.38-.39,0,0-.02-.03-.03-.03,0,0,0,0,0,0-.02.03-.3.24-.5.28H.27Z" style="fill:#fff; stroke-width:0px;"/><path d="M.77,17.66c-.55-1.44-.46-1.48-.61-2.08.16,2.01.76,3.66,1.34,5.18,0,0,.13-.04.2-.03.12-.14.15-.34.15-.34.3-.98-.64-1.61-1.07-2.73h0Z" style="fill:#fff; stroke-width:0px;"/><path d="M2.66,20.31l-.64.53h0s.04.03.05.05c.03.03.06.06.08.1h0c.31-.14.51-.14.51-.14-.08-.34,0-.54,0-.54h0Z" style="fill:#fff; stroke-width:0px;"/><path d="M6.34,22.72l-.82-.25c-1.29-.46-1.76-1.43-2.73-1.37-.21.02-.38.06-.55.16h0c0,.06-.01.14-.03.2h.01c.81.49,2.59,1.05,4.12,1.27h0Z" style="fill:#fff; stroke-width:0px;"/><path d="M2.06,22.67c.04-.1.06-.34.2-.5-.19-.17-.24-.26-.3-.42h0c-.06.04-.13.06-.2.06h0l.31.85h0Z" style="fill:#fff; stroke-width:0px;"/><path d="M1.91,21.51c.12-.13.12-.33,0-.45-.12-.12-.33-.12-.45,0-.12.12-.12.33,0,.45.12.13.33.12.45,0h0Z" style="fill:#fff; stroke-width:0px;"/><path d="M1.29,22.23c.14-.17.13-.22.19-.45-.07-.02-.18-.1-.23-.16l-1,1.07c.37.03.81-.18,1.04-.46h0Z" style="fill:#fff; stroke-width:0px;"/><path d="M.45,1.3c-.07.28-.3.55-.45.79.2.1.45.23.63.38C.25,3.05.11,3.34.05,4.03l.05,3.6h.05c.31-1.08.73-2.28,1.33-3.16.17-.25.2-.32.3-.46.12-.18.37-.56.36-1.19.22-.04.48.01.73.03-.03-.27-.07-.33,0-.77,1.04-.04,1.24-.68,2.36-1.26.51-.27.73-.38,1.41-.63v-.06c-2.11.07-3.04-.28-4.21.51-.14-.18-.21-.43-.3-.65-.17.13-.52.37-.79.44C1.04.13.58-.04.04,0-.03.44.12,1.01.45,1.3H.45Z" style="fill:#e40520; stroke-width:0px;"/><path d="M.27,2.02c.14-.06.86-.3.86-.3h0s.02.1.04.16h0c-.25.16-.38.36-.38.39,0,0-.02.03-.03.03,0,0,0,0,0,0-.02-.03-.3-.24-.5-.28H.27Z" style="fill:#fff; stroke-width:0px;"/><path d="M.77,5.28c-.55,1.43-.46,1.48-.61,2.08.16-2.01.76-3.66,1.34-5.18,0,0,.13.04.2.03.12.14.15.34.15.34.3.98-.64,1.61-1.07,2.74h0Z" style="fill:#fff; stroke-width:0px;"/><path d="M2.66,2.63l-.64-.53h0s.04-.03.05-.05c.03-.03.06-.06.08-.1h0c.31.14.51.14.51.14-.08.33,0,.54,0,.54h0Z" style="fill:#fff; stroke-width:0px;"/><path d="M6.34.23l-.82.26c-1.29.46-1.76,1.43-2.73,1.37-.21-.02-.38-.06-.55-.16h0c0-.06-.01-.14-.03-.2h.01c.81-.49,2.59-1.05,4.12-1.27h0Z" style="fill:#fff; stroke-width:0px;"/><path d="M2.06.27c.04.1.06.34.2.5-.19.17-.24.26-.3.42h0c-.06-.04-.13-.06-.2-.07h0s.31-.85.31-.85h0Z" style="fill:#fff; stroke-width:0px;"/><path d="M1.91,1.44c.12.12.12.33,0,.45-.12.12-.33.12-.45,0-.12-.12-.12-.33,0-.45.12-.12.33-.12.45,0h0Z" style="fill:#fff; stroke-width:0px;"/><path d="M1.29.71c.14.17.13.22.19.45-.07.02-.18.09-.23.16L.25.25c.37-.04.81.18,1.04.46h0Z" style="fill:#fff; stroke-width:0px;"/><path d="M33.38,10.75h-.59l-.11-1.56h-.02c-.58,1.22-1.73,1.74-2.96,1.74-2.7,0-4.04-2.12-4.04-4.46s1.34-4.46,4.04-4.46c1.8,0,3.26.97,3.57,2.84h-.82c-.11-.98-1.13-2.15-2.76-2.15-2.27,0-3.23,1.89-3.23,3.77s.96,3.77,3.23,3.77c1.89,0,3-1.33,2.96-3.14h-2.91v-.7h3.63v4.35Z" style="fill:#1d1d1b; stroke-width:0px;"/><path d="M35.25,7.86c.01,1.1.59,2.44,2.04,2.44,1.1,0,1.7-.65,1.94-1.58h.76c-.32,1.4-1.14,2.22-2.7,2.22-1.97,0-2.79-1.51-2.79-3.27,0-1.63.83-3.27,2.79-3.27s2.78,1.74,2.72,3.48h-4.76ZM39.26,7.22c-.04-1.14-.74-2.21-1.97-2.21s-1.92,1.08-2.04,2.21h4.01Z" style="fill:#1d1d1b; stroke-width:0px;"/><path d="M41.03,4.56h.76v1.07h.02c.28-.74,1.1-1.25,1.98-1.25,1.74,0,2.27.91,2.27,2.39v3.98h-.76v-3.86c0-1.07-.35-1.87-1.57-1.87s-1.92.91-1.94,2.12v3.61h-.76v-6.19Z" style="fill:#1d1d1b; stroke-width:0px;"/><path d="M47.93,7.86c.01,1.1.59,2.44,2.04,2.44,1.1,0,1.7-.65,1.94-1.58h.76c-.32,1.4-1.14,2.22-2.7,2.22-1.97,0-2.79-1.51-2.79-3.27,0-1.63.83-3.27,2.79-3.27s2.78,1.74,2.72,3.48h-4.76ZM51.93,7.22c-.04-1.14-.74-2.21-1.97-2.21s-1.92,1.08-2.04,2.21h4.01Z" style="fill:#1d1d1b; stroke-width:0px;"/><path d="M53.71,4.56h.7v1.45h.02c.38-1,1.22-1.58,2.34-1.54v.76c-1.37-.07-2.3.94-2.3,2.22v3.3h-.76v-6.19Z" style="fill:#1d1d1b; stroke-width:0px;"/><path d="M57.42,6.45c.07-1.45,1.09-2.08,2.51-2.08,1.09,0,2.28.34,2.28,1.99v3.29c0,.29.14.46.44.46.08,0,.18-.02.24-.05v.64c-.17.04-.29.05-.49.05-.77,0-.89-.43-.89-1.08h-.02c-.53.8-1.07,1.26-2.25,1.26s-2.07-.56-2.07-1.81c0-1.74,1.69-1.8,3.32-1.99.62-.07.97-.16.97-.84,0-1.02-.73-1.27-1.62-1.27-.93,0-1.63.43-1.65,1.44h-.76ZM61.45,7.37h-.02c-.1.18-.43.24-.64.28-1.28.23-2.88.22-2.88,1.43,0,.76.67,1.22,1.38,1.22,1.15,0,2.17-.73,2.16-1.94v-.98Z" style="fill:#1d1d1b; stroke-width:0px;"/><path d="M63.73,2.18h.76v8.56h-.76V2.18Z" style="fill:#1d1d1b; stroke-width:0px;"/><path d="M65.95,2.18h.76v1.21h-.76v-1.21ZM65.95,4.56h.76v6.19h-.76v-6.19Z" style="fill:#1d1d1b; stroke-width:0px;"/><path d="M69.36,4.56h1.26v.64h-1.26v4.17c0,.49.07.78.61.82.22,0,.43-.01.65-.04v.65c-.23,0-.44.02-.67.02-1.01,0-1.36-.34-1.34-1.39v-4.23h-1.08v-.64h1.08v-1.86h.76v1.86Z" style="fill:#1d1d1b; stroke-width:0px;"/><path d="M71.64,6.45c.07-1.45,1.09-2.08,2.51-2.08,1.09,0,2.28.34,2.28,1.99v3.29c0,.29.14.46.44.46.08,0,.18-.02.24-.05v.64c-.17.04-.29.05-.49.05-.77,0-.89-.43-.89-1.08h-.02c-.53.8-1.07,1.26-2.25,1.26s-2.07-.56-2.07-1.81c0-1.74,1.69-1.8,3.32-1.99.62-.07.97-.16.97-.84,0-1.02-.73-1.27-1.62-1.27-.94,0-1.63.43-1.65,1.44h-.76ZM75.67,7.37h-.02c-.1.18-.43.24-.64.28-1.28.23-2.88.22-2.88,1.43,0,.76.67,1.22,1.38,1.22,1.15,0,2.17-.73,2.16-1.94v-.98Z" style="fill:#1d1d1b; stroke-width:0px;"/><path d="M79.14,4.56h1.26v.64h-1.26v4.17c0,.49.07.78.61.82.22,0,.43-.01.65-.04v.65c-.23,0-.44.02-.67.02-1.01,0-1.36-.34-1.34-1.39v-4.23h-1.08v-.64h1.08v-1.86h.76v1.86Z" style="fill:#1d1d1b; stroke-width:0px;"/><path d="M90.27,10.75h-.7v-1.18h-.02c-.32.8-1.31,1.35-2.21,1.35-1.88,0-2.78-1.52-2.78-3.27s.9-3.27,2.78-3.27c.92,0,1.82.47,2.15,1.36h.02v-3.55h.76v8.56ZM87.34,10.29c1.61,0,2.17-1.36,2.17-2.64s-.56-2.64-2.17-2.64c-1.44,0-2.03,1.36-2.03,2.64s.59,2.64,2.03,2.64Z" style="fill:#1d1d1b; stroke-width:0px;"/><path d="M92.16,7.86c.01,1.1.59,2.44,2.04,2.44,1.1,0,1.7-.65,1.94-1.58h.76c-.32,1.4-1.14,2.22-2.7,2.22-1.97,0-2.79-1.51-2.79-3.27,0-1.63.83-3.27,2.79-3.27s2.78,1.74,2.72,3.48h-4.76ZM96.16,7.22c-.04-1.14-.74-2.21-1.97-2.21s-1.92,1.08-2.04,2.21h4.01Z" style="fill:#1d1d1b; stroke-width:0px;"/><path d="M107.68,4.77c-.29-1.32-1.38-2.07-2.63-2.07-2.27,0-3.23,1.89-3.23,3.77s.96,3.77,3.23,3.77c1.58,0,2.59-1.22,2.75-2.75h.82c-.23,2.1-1.56,3.44-3.56,3.44-2.7,0-4.04-2.12-4.04-4.46s1.34-4.46,4.04-4.46c1.62,0,3.23.97,3.44,2.77h-.82Z" style="fill:#1d1d1b; stroke-width:0px;"/><path d="M109.65,6.45c.07-1.45,1.09-2.08,2.51-2.08,1.09,0,2.28.34,2.28,1.99v3.29c0,.29.14.46.44.46.08,0,.18-.02.24-.05v.64c-.17.04-.29.05-.49.05-.77,0-.89-.43-.89-1.08h-.02c-.53.8-1.07,1.26-2.25,1.26s-2.07-.56-2.07-1.81c0-1.74,1.69-1.8,3.32-1.99.62-.07.97-.16.97-.84,0-1.02-.73-1.27-1.62-1.27-.93,0-1.63.43-1.65,1.44h-.76ZM113.68,7.37h-.02c-.1.18-.43.24-.64.28-1.28.23-2.88.22-2.88,1.43,0,.76.67,1.22,1.38,1.22,1.15,0,2.17-.73,2.16-1.94v-.98Z" style="fill:#1d1d1b; stroke-width:0px;"/><path d="M117.15,4.56h1.26v.64h-1.26v4.17c0,.49.07.78.61.82.22,0,.43-.01.65-.04v.65c-.23,0-.44.02-.67.02-1.01,0-1.36-.34-1.34-1.39v-4.23h-1.08v-.64h1.08v-1.86h.76v1.86Z" style="fill:#1d1d1b; stroke-width:0px;"/><path d="M119.43,6.45c.07-1.45,1.09-2.08,2.51-2.08,1.09,0,2.28.34,2.28,1.99v3.29c0,.29.14.46.44.46.08,0,.18-.02.24-.05v.64c-.17.04-.29.05-.49.05-.77,0-.89-.43-.89-1.08h-.02c-.53.8-1.07,1.26-2.25,1.26s-2.07-.56-2.07-1.81c0-1.74,1.69-1.8,3.32-1.99.62-.07.97-.16.97-.84,0-1.02-.73-1.27-1.62-1.27-.94,0-1.63.43-1.65,1.44h-.76ZM123.46,7.37h-.02c-.1.18-.43.24-.64.28-1.28.23-2.88.22-2.88,1.43,0,.76.67,1.22,1.38,1.22,1.15,0,2.17-.73,2.16-1.94v-.98Z" style="fill:#1d1d1b; stroke-width:0px;"/><path d="M125.74,2.18h.76v8.56h-.76V2.18Z" style="fill:#1d1d1b; stroke-width:0px;"/><path d="M132.96,10.75h-.7v-1.12h-.02c-.4.83-1.21,1.29-2.13,1.29-1.56,0-2.17-.91-2.17-2.35v-4.02h.76v4.03c.04,1.12.46,1.7,1.65,1.7,1.3,0,1.86-1.22,1.86-2.48v-3.25h.76v6.19Z" style="fill:#1d1d1b; stroke-width:0px;"/><path d="M134.38,4.56h.76v1.07h.02c.28-.74,1.1-1.25,1.98-1.25,1.74,0,2.27.91,2.27,2.39v3.98h-.76v-3.86c0-1.07-.35-1.87-1.57-1.87s-1.92.91-1.94,2.12v3.61h-.76v-6.19Z" style="fill:#1d1d1b; stroke-width:0px;"/><path d="M140.14,4.56h.8l2.04,5.28,1.91-5.28h.76l-2.69,7.14c-.43,1.04-.68,1.34-1.63,1.34-.3-.01-.46-.01-.58-.06v-.64c.18.04.35.06.52.06.67,0,.83-.4,1.08-.97l.26-.71-2.47-6.16Z" style="fill:#1d1d1b; stroke-width:0px;"/><path d="M146.32,6.45c.07-1.45,1.09-2.08,2.51-2.08,1.09,0,2.28.34,2.28,1.99v3.29c0,.29.14.46.44.46.08,0,.18-.02.24-.05v.64c-.17.04-.29.05-.49.05-.77,0-.89-.43-.89-1.08h-.02c-.53.8-1.07,1.26-2.25,1.26s-2.07-.56-2.07-1.81c0-1.74,1.69-1.8,3.32-1.99.62-.07.97-.16.97-.84,0-1.02-.73-1.27-1.62-1.27-.94,0-1.63.43-1.65,1.44h-.76ZM150.35,7.37h-.02c-.1.18-.43.24-.64.28-1.28.23-2.88.22-2.88,1.43,0,.76.67,1.22,1.38,1.22,1.15,0,2.17-.73,2.16-1.94v-.98Z" style="fill:#1d1d1b; stroke-width:0px;"/><path d="M26.03,14.18h3.69c2.22,0,3.89,1.39,3.89,4.23,0,2.48-1.27,4.33-3.89,4.33h-3.69v-8.56ZM27.91,21.16h1.68c1.09,0,2.13-.67,2.13-2.57,0-1.73-.6-2.83-2.47-2.83h-1.34v5.4Z" style="fill:#010000; stroke-width:0px;"/><path d="M36.14,20.06c.05,1.08.58,1.57,1.52,1.57.68,0,1.24-.42,1.34-.8h1.5c-.48,1.46-1.5,2.09-2.9,2.09-1.96,0-3.17-1.34-3.17-3.26s1.28-3.27,3.17-3.27c2.11,0,3.13,1.78,3.01,3.68h-4.47ZM38.91,18.98c-.16-.86-.53-1.32-1.35-1.32-1.08,0-1.39.84-1.42,1.32h2.77Z" style="fill:#010000; stroke-width:0px;"/><path d="M41.62,16.55h1.62v.79h.02c.41-.66,1.08-.96,1.85-.96,1.94,0,2.82,1.57,2.82,3.33,0,1.65-.91,3.2-2.72,3.2-.74,0-1.45-.32-1.86-.94h-.02v2.95h-1.7v-8.38ZM46.23,19.66c0-.98-.4-2-1.49-2s-1.48,1-1.48,2,.38,1.97,1.49,1.97,1.48-.96,1.48-1.97Z" style="fill:#010000; stroke-width:0px;"/><path d="M48.89,18.45c.1-1.6,1.52-2.08,2.91-2.08,1.24,0,2.72.28,2.72,1.76v3.23c0,.56.06,1.13.22,1.38h-1.73c-.06-.19-.11-.4-.12-.6-.54.56-1.33.77-2.09.77-1.18,0-2.11-.59-2.11-1.86,0-1.4,1.06-1.74,2.11-1.88,1.04-.16,2.01-.12,2.01-.82,0-.73-.5-.84-1.1-.84-.65,0-1.07.26-1.13.94h-1.7ZM52.82,19.71c-.29.25-.89.26-1.42.36-.53.11-1.01.29-1.01.91s.49.79,1.04.79c1.33,0,1.38-1.06,1.38-1.43v-.64Z" style="fill:#010000; stroke-width:0px;"/><path d="M55.84,16.55h1.62v1.15h.02c.31-.78,1.15-1.32,1.98-1.32.12,0,.26.02.37.06v1.58c-.16-.04-.41-.06-.61-.06-1.25,0-1.68.9-1.68,1.99v2.79h-1.7v-6.2Z" style="fill:#010000; stroke-width:0px;"/><path d="M62.67,16.55h1.25v1.14h-1.25v3.07c0,.58.14.72.72.72.18,0,.35-.01.53-.05v1.33c-.29.05-.66.06-1,.06-1.04,0-1.95-.24-1.95-1.48v-3.66h-1.03v-1.14h1.03v-1.86h1.7v1.86Z" style="fill:#010000; stroke-width:0px;"/><path d="M64.66,18.45c.1-1.6,1.52-2.08,2.91-2.08,1.24,0,2.72.28,2.72,1.76v3.23c0,.56.06,1.13.22,1.38h-1.73c-.06-.19-.11-.4-.12-.6-.54.56-1.33.77-2.09.77-1.18,0-2.11-.59-2.11-1.86,0-1.4,1.06-1.74,2.11-1.88,1.04-.16,2.02-.12,2.02-.82,0-.73-.5-.84-1.1-.84-.65,0-1.07.26-1.13.94h-1.7ZM68.6,19.71c-.29.25-.89.26-1.42.36-.53.11-1.01.29-1.01.91s.49.79,1.04.79c1.33,0,1.38-1.06,1.38-1.43v-.64Z" style="fill:#010000; stroke-width:0px;"/><path d="M71.67,16.55h1.61v.84h.02c.44-.64,1.09-1.01,1.89-1.01s1.48.29,1.81,1.03c.36-.54,1.01-1.03,1.87-1.03,1.32,0,2.27.61,2.27,2.22v4.15h-1.7v-3.51c0-.83-.07-1.51-1.04-1.51s-1.14.79-1.14,1.57v3.45h-1.7v-3.48c0-.72.05-1.55-1.03-1.55-.34,0-1.15.22-1.15,1.43v3.6h-1.7v-6.2Z" style="fill:#010000; stroke-width:0px;"/><path d="M83.9,20.06c.05,1.08.58,1.57,1.52,1.57.68,0,1.24-.42,1.34-.8h1.5c-.48,1.46-1.5,2.09-2.9,2.09-1.96,0-3.17-1.34-3.17-3.26s1.28-3.27,3.17-3.27c2.11,0,3.13,1.78,3.01,3.68h-4.47ZM86.67,18.98c-.16-.86-.53-1.32-1.35-1.32-1.08,0-1.39.84-1.42,1.32h2.77Z" style="fill:#010000; stroke-width:0px;"/><path d="M89.38,16.55h1.62v.86h.04c.43-.7,1.18-1.03,1.9-1.03,1.81,0,2.27,1.02,2.27,2.55v3.81h-1.7v-3.5c0-1.02-.3-1.52-1.09-1.52-.92,0-1.32.52-1.32,1.78v3.25h-1.7v-6.2Z" style="fill:#010000; stroke-width:0px;"/><path d="M98.66,16.55h1.25v1.14h-1.25v3.07c0,.58.14.72.72.72.18,0,.35-.01.53-.05v1.33c-.29.05-.66.06-1,.06-1.04,0-1.95-.24-1.95-1.48v-3.66h-1.03v-1.14h1.03v-1.86h1.7v1.86Z" style="fill:#010000; stroke-width:0px;"/><path d="M108.49,21.96h-.02c-.4.67-1.09.96-1.88.96-1.87,0-2.78-1.61-2.78-3.32s.92-3.21,2.75-3.21c.73,0,1.45.31,1.83.92h.02v-3.12h1.7v8.56h-1.62v-.79ZM107,17.66c-1.12,0-1.5.96-1.5,1.98s.44,1.99,1.5,1.99c1.13,0,1.46-.98,1.46-2s-.36-1.97-1.46-1.97Z" style="fill:#010000; stroke-width:0px;"/><path d="M111.56,14.18h1.7v1.83c.04,1.07-.71,1.88-1.7,2.02v-.79c.61-.2.79-.62.79-1.21h-.79v-1.85Z" style="fill:#010000; stroke-width:0px;"/><path d="M114.91,14.18h6.4v1.58h-4.52v1.83h4.15v1.46h-4.15v2.1h4.62v1.58h-6.5v-8.56Z" style="fill:#010000; stroke-width:0px;"/><path d="M126.93,21.96h-.02c-.4.67-1.09.96-1.88.96-1.87,0-2.78-1.61-2.78-3.32s.92-3.21,2.75-3.21c.73,0,1.45.31,1.83.92h.02v-3.12h1.7v8.56h-1.62v-.79ZM125.44,17.66c-1.12,0-1.5.96-1.5,1.98s.44,1.99,1.5,1.99c1.13,0,1.46-.98,1.46-2s-.36-1.97-1.46-1.97Z" style="fill:#010000; stroke-width:0px;"/><path d="M135.65,22.75h-1.62v-.86h-.04c-.43.7-1.18,1.03-1.89,1.03-1.81,0-2.27-1.02-2.27-2.55v-3.81h1.7v3.5c0,1.02.3,1.52,1.09,1.52.92,0,1.32-.52,1.32-1.77v-3.25h1.7v6.2Z" style="fill:#010000; stroke-width:0px;"/><path d="M141.17,18.73c-.11-.7-.55-1.07-1.26-1.07-1.09,0-1.45,1.1-1.45,2.02s.35,1.96,1.42,1.96c.79,0,1.25-.5,1.35-1.26h1.64c-.22,1.64-1.35,2.54-2.99,2.54-1.87,0-3.13-1.32-3.13-3.18s1.15-3.36,3.17-3.36c1.46,0,2.81.77,2.91,2.35h-1.67Z" style="fill:#010000; stroke-width:0px;"/><path d="M143.77,18.45c.1-1.6,1.52-2.08,2.91-2.08,1.24,0,2.72.28,2.72,1.76v3.23c0,.56.06,1.13.22,1.38h-1.73c-.06-.19-.11-.4-.12-.6-.54.56-1.33.77-2.09.77-1.18,0-2.11-.59-2.11-1.86,0-1.4,1.06-1.74,2.11-1.88,1.04-.16,2.02-.12,2.02-.82,0-.73-.5-.84-1.1-.84-.65,0-1.07.26-1.13.94h-1.7ZM147.7,19.71c-.29.25-.89.26-1.42.36-.53.11-1.01.29-1.01.91s.49.79,1.04.79c1.33,0,1.38-1.06,1.38-1.43v-.64Z" style="fill:#010000; stroke-width:0px;"/><path d="M154.95,18.73c-.11-.7-.55-1.07-1.26-1.07-1.09,0-1.45,1.1-1.45,2.02s.35,1.96,1.42,1.96c.79,0,1.25-.5,1.35-1.26h1.64c-.22,1.64-1.35,2.54-2.99,2.54-1.87,0-3.13-1.32-3.13-3.18s1.15-3.36,3.17-3.36c1.46,0,2.81.77,2.91,2.35h-1.67Z" style="fill:#010000; stroke-width:0px;"/><path d="M159.37,15.59h-1.7v-1.4h1.7v1.4ZM157.66,16.55h1.7v6.2h-1.7v-6.2Z" style="fill:#010000; stroke-width:0px;"/><path d="M163.72,16.38c1.95,0,3.21,1.3,3.21,3.27s-1.26,3.26-3.21,3.26-3.2-1.3-3.2-3.26,1.26-3.27,3.2-3.27ZM163.72,21.63c1.16,0,1.51-1,1.51-1.98s-.35-1.99-1.51-1.99-1.5,1-1.5,1.99.35,1.98,1.5,1.98ZM164.01,15.78h-1.19l1.15-1.7h1.88l-1.85,1.7Z" style="fill:#010000; stroke-width:0px;"/></svg>